<svg xmlns="http://www.w3.org/2000/svg" xmlns:xlink="http://www.w3.org/1999/xlink" viewBox="0 0 840 1200" width="840" height="1200" preserveAspectRatio="xMidYMid meet" style="width: 100%; height: 100%; transform: translate3d(0px, 0px, 0px); content-visibility: visible;"><defs><clipPath id="__lottie_element_2"><rect width="840" height="1200" x="0" y="0"></rect></clipPath><clipPath id="__lottie_element_4"><path d="M0,0 L840,0 L840,1200 L0,1200z"></path></clipPath><clipPath id="__lottie_element_17"><path d="M0,0 L840,0 L840,1200 L0,1200z"></path></clipPath><clipPath id="__lottie_element_21"><path d="M0,0 L840,0 L840,1200 L0,1200z"></path></clipPath><clipPath id="__lottie_element_25"><path d="M0,0 L840,0 L840,1200 L0,1200z"></path></clipPath><clipPath id="__lottie_element_32"><path d="M0,0 L840,0 L840,1200 L0,1200z"></path></clipPath><clipPath id="__lottie_element_39"><path d="M0,0 L840,0 L840,1200 L0,1200z"></path></clipPath><clipPath id="__lottie_element_46"><path d="M0,0 L840,0 L840,1200 L0,1200z"></path></clipPath><clipPath id="__lottie_element_53"><path d="M0,0 L840,0 L840,1200 L0,1200z"></path></clipPath><clipPath id="__lottie_element_60"><path d="M0,0 L840,0 L840,1200 L0,1200z"></path></clipPath><clipPath id="__lottie_element_67"><path d="M0,0 L840,0 L840,1200 L0,1200z"></path></clipPath><clipPath id="__lottie_element_74"><path d="M0,0 L840,0 L840,1200 L0,1200z"></path></clipPath><clipPath id="__lottie_element_81"><path d="M0,0 L840,0 L840,1200 L0,1200z"></path></clipPath><clipPath id="__lottie_element_88"><path d="M0,0 L840,0 L840,1200 L0,1200z"></path></clipPath><clipPath id="__lottie_element_95"><path d="M0,0 L840,0 L840,1200 L0,1200z"></path></clipPath><clipPath id="__lottie_element_102"><path d="M0,0 L840,0 L840,1200 L0,1200z"></path></clipPath><clipPath id="__lottie_element_109"><path d="M0,0 L840,0 L840,1200 L0,1200z"></path></clipPath><clipPath id="__lottie_element_116"><path d="M0,0 L840,0 L840,1200 L0,1200z"></path></clipPath><clipPath id="__lottie_element_123"><path d="M0,0 L840,0 L840,1200 L0,1200z"></path></clipPath><clipPath id="__lottie_element_130"><path d="M0,0 L840,0 L840,1200 L0,1200z"></path></clipPath><clipPath id="__lottie_element_137"><path d="M0,0 L840,0 L840,1200 L0,1200z"></path></clipPath><clipPath id="__lottie_element_144"><path d="M0,0 L840,0 L840,1200 L0,1200z"></path></clipPath><clipPath id="__lottie_element_151"><path d="M0,0 L840,0 L840,1200 L0,1200z"></path></clipPath><clipPath id="__lottie_element_158"><path d="M0,0 L840,0 L840,1200 L0,1200z"></path></clipPath><clipPath id="__lottie_element_165"><path d="M0,0 L840,0 L840,1200 L0,1200z"></path></clipPath><clipPath id="__lottie_element_172"><path d="M0,0 L840,0 L840,1200 L0,1200z"></path></clipPath><clipPath id="__lottie_element_179"><path d="M0,0 L840,0 L840,1200 L0,1200z"></path></clipPath><clipPath id="__lottie_element_186"><path d="M0,0 L840,0 L840,1200 L0,1200z"></path></clipPath><clipPath id="__lottie_element_193"><path d="M0,0 L840,0 L840,1200 L0,1200z"></path></clipPath><clipPath id="__lottie_element_200"><path d="M0,0 L840,0 L840,1200 L0,1200z"></path></clipPath><clipPath id="__lottie_element_207"><path d="M0,0 L840,0 L840,1200 L0,1200z"></path></clipPath><clipPath id="__lottie_element_214"><path d="M0,0 L840,0 L840,1200 L0,1200z"></path></clipPath><clipPath id="__lottie_element_221"><path d="M0,0 L840,0 L840,1200 L0,1200z"></path></clipPath><clipPath id="__lottie_element_228"><path d="M0,0 L840,0 L840,1200 L0,1200z"></path></clipPath><clipPath id="__lottie_element_235"><path d="M0,0 L840,0 L840,1200 L0,1200z"></path></clipPath><clipPath id="__lottie_element_242"><path d="M0,0 L840,0 L840,1200 L0,1200z"></path></clipPath><clipPath id="__lottie_element_249"><path d="M0,0 L840,0 L840,1200 L0,1200z"></path></clipPath><clipPath id="__lottie_element_253"><path d="M0,0 L840,0 L840,1200 L0,1200z"></path></clipPath><clipPath id="__lottie_element_260"><path d="M0,0 L840,0 L840,1200 L0,1200z"></path></clipPath><clipPath id="__lottie_element_267"><path d="M0,0 L840,0 L840,1200 L0,1200z"></path></clipPath><clipPath id="__lottie_element_274"><path d="M0,0 L840,0 L840,1200 L0,1200z"></path></clipPath><clipPath id="__lottie_element_281"><path d="M0,0 L840,0 L840,1200 L0,1200z"></path></clipPath><clipPath id="__lottie_element_288"><path d="M0,0 L840,0 L840,1200 L0,1200z"></path></clipPath><clipPath id="__lottie_element_295"><path d="M0,0 L840,0 L840,1200 L0,1200z"></path></clipPath><clipPath id="__lottie_element_302"><path d="M0,0 L840,0 L840,1200 L0,1200z"></path></clipPath></defs><g clip-path="url(#__lottie_element_2)"><g clip-path="url(#__lottie_element_4)" transform="matrix(1,0,0,1,0,0)" opacity="1" style="display: block;"><g clip-path="url(#__lottie_element_249)" transform="matrix(1,0,0,1,0,0)" opacity="1" style="display: block;"><g clip-path="url(#__lottie_element_302)" transform="matrix(1,0,0,1,0,0)" opacity="1" style="display: block;"><g transform="matrix(-0.9946095943450928,0.10369059443473816,-0.10369059443473816,-0.9946095943450928,242.390625,566.50927734375)" opacity="1" style="display: block;"><g opacity="1" transform="matrix(2,0,0,2,0,0)"><path stroke-linecap="round" stroke-linejoin="miter" fill-opacity="0" stroke-miterlimit="4" stroke="#000000" stroke-opacity="1" stroke-width="2.0131px" d=" M-28.889787673950195,-1.1035187244415283 C-18.468788146972656,-1.748518705368042 -0.8875241279602051,-3.6787753105163574 -3.0975241661071777,-2.0647754669189453 C-5.30752420425415,-0.4507754147052765 -25.27866554260254,2.193716049194336 -30.3316650390625,3.807715892791748"></path></g></g></g><g clip-path="url(#__lottie_element_295)" transform="matrix(1,0,0,1,0,0)" opacity="1" style="display: block;"><g transform="matrix(-0.6733420491218567,-0.7393311262130737,0.7393311262130737,-0.6733420491218567,263.4759521484375,493.4465637207031)" opacity="1" style="display: block;"><g opacity="1" transform="matrix(2,0,0,2,0,0)"><path stroke-linecap="round" stroke-linejoin="miter" fill-opacity="0" stroke-miterlimit="4" stroke="#000000" stroke-opacity="1" stroke-width="2.14287px" d=" M-27.778303146362305,-0.8035857081413269 C-14.13023853302002,-0.8958886861801147 0.12864406406879425,-5.246011257171631 -2.1936092376708984,-2.0424716472625732 C-4.515862464904785,1.1610678434371948 -15.892467498779297,-0.3120187520980835 -28.080829620361328,4.674718379974365"></path></g></g></g><g clip-path="url(#__lottie_element_288)" transform="matrix(1,0,0,1,0,0)" opacity="1" style="display: block;"><g transform="matrix(-0.03944189101457596,-0.9992218613624573,0.9992218613624573,-0.03944189101457596,314.9043273925781,467.1784362792969)" opacity="1" style="display: block;"><g opacity="1" transform="matrix(2,0,0,2,0,0)"><path stroke-linecap="round" stroke-linejoin="miter" fill-opacity="0" stroke-miterlimit="4" stroke="#000000" stroke-opacity="1" stroke-width="2.40817px" d=" M-26.165512084960938,-0.7996602654457092 C-4.927758693695068,-0.7996602654457092 16.397369384765625,-4.496913909912109 12.892263412475586,-1.8561004400253296 C9.38715648651123,0.784713089466095 -6.135897636413574,-0.7996602654457092 -26.165512084960938,3.4263134002685547"></path></g></g></g><g clip-path="url(#__lottie_element_281)" transform="matrix(1,0,0,1,0,0)" opacity="1" style="display: block;"><g transform="matrix(0.6252151131629944,-0.7804524898529053,0.7804524898529053,0.6252151131629944,372.26690673828125,480.9024658203125)" opacity="1" style="display: block;"><g opacity="1" transform="matrix(2,0,0,2,0,0)"><path stroke-linecap="round" stroke-linejoin="miter" fill-opacity="0" stroke-miterlimit="4" stroke="#000000" stroke-opacity="1" stroke-width="2.69954px" d=" M-26.913686752319336,-0.8713744282722473 C-4.830966949462891,-0.8713744282722473 35.73834228515625,-6.274396896362305 25.383140563964844,-2.815500020980835 C21.16631317138672,-1.3503422737121582 -6.994564056396484,-0.14976002275943756 -27.8212833404541,4.008441925048828"></path></g></g></g><g clip-path="url(#__lottie_element_274)" transform="matrix(1,0,0,1,0,0)" opacity="1" style="display: block;"><g transform="matrix(0.9995958805084229,-0.02842603623867035,0.02842603623867035,0.9995958805084229,408.97906494140625,541.4520263671875)" opacity="1" style="display: block;"><g opacity="1" transform="matrix(2,0,0,2,0,0)"><path stroke-linecap="round" stroke-linejoin="miter" fill-opacity="0" stroke-miterlimit="4" stroke="#000000" stroke-opacity="1" stroke-width="2.99148px" d=" M-26.970436096191406,-0.15794557332992554 C-9.517582893371582,-1.165927767753601 33.6793098449707,-7.004620552062988 29.76980972290039,-4.366698741912842 C26.081933975219727,-1.8007599115371704 -21.239885330200195,2.3885467052459717 -30.04164695739746,5.047854900360107"></path></g></g></g><g clip-path="url(#__lottie_element_267)" transform="matrix(1,0,0,1,0,0)" opacity="1" style="display: block;"><g transform="matrix(0.6041929125785828,0.796838104724884,-0.796838104724884,0.6041929125785828,381.5420837402344,613.5419921875)" opacity="1" style="display: block;"><g opacity="1" transform="matrix(2,0,0,2,0,0)"><path stroke-linecap="round" stroke-linejoin="miter" fill-opacity="0" stroke-miterlimit="4" stroke="#000000" stroke-opacity="1" stroke-width="2.7187px" d=" M-30.321435928344727,-0.808103084564209 C-19.900436401367188,-1.4531030654907227 16.516496658325195,-4.8244099617004395 14.306496620178223,-3.2104098796844482 C12.09649658203125,-1.5964099168777466 -23.64143180847168,1.8598968982696533 -28.694433212280273,3.4738969802856445"></path></g></g></g><g clip-path="url(#__lottie_element_260)" transform="matrix(1,0,0,1,0,0)" opacity="1" style="display: block;"><g transform="matrix(-0.04132724180817604,0.9991456866264343,-0.9991456866264343,-0.04132724180817604,328.7345275878906,635.0545043945312)" opacity="1" style="display: block;"><g opacity="1" transform="matrix(2,0,0,2,0,0)"><path stroke-linecap="round" stroke-linejoin="miter" fill-opacity="0" stroke-miterlimit="4" stroke="#000000" stroke-opacity="1" stroke-width="2.42647px" d=" M-31.30287742614746,0.38907530903816223 C-20.881877899169922,-0.25592470169067383 11.467122077941895,-4.9679646492004395 9.257122039794922,-3.353964328765869 C7.047122001647949,-1.7399643659591675 -24.621877670288086,3.057075262069702 -29.674877166748047,4.671075344085693"></path></g></g></g><g clip-path="url(#__lottie_element_253)" transform="matrix(1,0,0,1,0,0)" opacity="1" style="display: block;"><g transform="matrix(-0.757013201713562,0.6533995866775513,-0.6533995866775513,-0.757013201713562,266.1966857910156,611.0216064453125)" opacity="1" style="display: block;"><g opacity="1" transform="matrix(2,0,0,2,0,0)"><path stroke-linecap="round" stroke-linejoin="miter" fill-opacity="0" stroke-miterlimit="4" stroke="#000000" stroke-opacity="1" stroke-width="2.15849px" d=" M-29.14577865600586,-0.09890090674161911 C-18.72477912902832,-0.7439008951187134 12.252132415771484,-5.198352813720703 10.042132377624512,-3.584352731704712 C7.832132339477539,-1.9703528881072998 -22.7500057220459,2.6275620460510254 -27.80300521850586,4.2415618896484375"></path></g></g></g></g><g clip-path="url(#__lottie_element_17)" transform="matrix(1,0,0,1,0,0)" opacity="1" style="display: block;"><g clip-path="url(#__lottie_element_21)" transform="matrix(1,0,0,1,0,0)" opacity="1" style="display: block;"><g clip-path="url(#__lottie_element_242)" transform="matrix(1,0,0,1,0,0)" opacity="1" style="display: block;"><g transform="matrix(1,0,0,1,124.18814849853516,669.7714233398438)" opacity="1" style="display: block;"><g opacity="1" transform="matrix(1.5932979583740234,-0.05872989073395729,0.05872989073395729,1.5932979583740234,0,0)"><path stroke-linecap="butt" stroke-linejoin="miter" fill-opacity="0" stroke-miterlimit="4" stroke="#000000" stroke-opacity="1" stroke-width="3.14693px" d=" M12.975972175598145,-9.520644187927246 C12.975972175598145,-9.520644187927246 5.567611217498779,-11.403539657592773 -0.2887643873691559,-11.545695304870605 C-6.145140171051025,-11.687850952148438 -14.567485809326172,-9.781983375549316 -14.567485809326172,-9.781983375549316 C-16.072660446166992,-2.038287401199341 -16.950124740600586,2.2999894618988037 -14.563629150390625,10.413731575012207 C-14.563629150390625,10.413731575012207 -6.728264808654785,12.046311378479004 -0.640648603439331,12.08935546875 C5.446967601776123,12.132400512695312 12.979827880859375,10.675071716308594 12.979827880859375,10.675071716308594 C14.902313232421875,2.7347652912139893 14.631714820861816,-1.67905592918396 12.975972175598145,-9.520644187927246z"></path></g></g></g><g clip-path="url(#__lottie_element_235)" transform="matrix(1,0,0,1,0,0)" opacity="1" style="display: block;"><g transform="matrix(1,0,0,1,119.47584533691406,613.3314208984375)" opacity="1" style="display: block;"><g opacity="1" transform="matrix(1.5932979583740234,-0.05872989073395729,0.05872989073395729,1.5932979583740234,0,0)"><path stroke-linecap="butt" stroke-linejoin="miter" fill-opacity="0" stroke-miterlimit="4" stroke="#000000" stroke-opacity="1" stroke-width="3.0304px" d=" M12.321684837341309,-8.807720184326172 C12.321684837341309,-8.807720184326172 4.974483966827393,-10.509316444396973 -0.4128058850765228,-10.65273380279541 C-5.800096035003662,-10.796152114868164 -14.124332427978516,-9.048979759216309 -14.124332427978516,-9.048979759216309 C-15.570528030395508,-1.8115472793579102 -16.413454055786133,2.243189811706543 -14.123115539550781,9.825997352600098 C-14.123115539550781,9.825997352600098 -6.368762493133545,11.217264175415039 -0.7394457459449768,11.293814659118652 C4.889870643615723,11.370365142822266 12.322901725769043,10.067255973815918 12.322901725769043,10.067255973815918 C14.169768333435059,2.645951271057129 13.910530090332031,-1.4791666269302368 12.321684837341309,-8.807720184326172z"></path></g></g></g><g clip-path="url(#__lottie_element_228)" transform="matrix(1,0,0,1,0,0)" opacity="1" style="display: block;"><g transform="matrix(1,0,0,1,117.19036865234375,559.336181640625)" opacity="1" style="display: block;"><g opacity="1" transform="matrix(1.5932979583740234,-0.05872989073395729,0.05872989073395729,1.5932979583740234,0,0)"><path stroke-linecap="butt" stroke-linejoin="miter" fill-opacity="0" stroke-miterlimit="4" stroke="#000000" stroke-opacity="1" stroke-width="3.01219px" d=" M12.186745643615723,-8.660689353942871 C12.186745643615723,-8.660689353942871 4.852159023284912,-10.324893951416016 -0.438387930393219,-10.468571662902832 C-5.7289347648620605,-10.612250328063965 -14.032938003540039,-8.897806167602539 -14.032938003540039,-8.897806167602539 C-15.466968536376953,-1.764784812927246 -16.302770614624023,2.231475353240967 -14.032265663146973,9.704784393310547 C-14.032265663146973,9.704784393310547 -6.294619560241699,11.046283721923828 -0.7598214745521545,11.129744529724121 C4.77497673034668,11.213205337524414 12.187417984008789,9.941902160644531 12.187417984008789,9.941902160644531 C14.018689155578613,2.627634286880493 13.761794090270996,-1.4379419088363647 12.186745643615723,-8.660689353942871z"></path></g></g></g><g clip-path="url(#__lottie_element_221)" transform="matrix(1,0,0,1,0,0)" opacity="1" style="display: block;"><g transform="matrix(1,0,0,1,118.64384460449219,504.3548278808594)" opacity="1" style="display: block;"><g opacity="1" transform="matrix(1.5932979583740234,-0.05872989073395729,0.05872989073395729,1.5932979583740234,0,0)"><path stroke-linecap="butt" stroke-linejoin="miter" fill-opacity="0" stroke-miterlimit="4" stroke="#000000" stroke-opacity="1" stroke-width="3.11302px" d=" M12.800271034240723,-9.329197883605957 C12.800271034240723,-9.329197883605957 5.408334732055664,-11.163407325744629 -0.32207411527633667,-11.305902481079102 C-6.052483081817627,-11.448396682739258 -14.448482513427734,-9.585144996643066 -14.448482513427734,-9.585144996643066 C-15.937819480895996,-1.977399230003357 -16.80600929260254,2.2847366333007812 -14.445335388183594,10.255903244018555 C-14.445335388183594,10.255903244018555 -6.631724834442139,11.823680877685547 -0.66717928647995,11.875723838806152 C5.297366619110107,11.927765846252441 12.80341911315918,10.511850357055664 12.80341911315918,10.511850357055664 C14.705597877502441,2.7109155654907227 14.438050270080566,-1.6253782510757446 12.800271034240723,-9.329197883605957z"></path></g></g></g><g clip-path="url(#__lottie_element_214)" transform="matrix(1,0,0,1,0,0)" opacity="1" style="display: block;"><g transform="matrix(1,0,0,1,125.0238265991211,447.76251220703125)" opacity="1" style="display: block;"><g opacity="1" transform="matrix(1.5932979583740234,-0.05872989073395729,0.05872989073395729,1.5932979583740234,0,0)"><path stroke-linecap="butt" stroke-linejoin="miter" fill-opacity="0" stroke-miterlimit="4" stroke="#000000" stroke-opacity="1" stroke-width="3.25988px" d=" M13.51766300201416,-10.110880851745605 C13.51766300201416,-10.110880851745605 6.05866813659668,-12.143877029418945 -0.186069056391716,-12.284987449645996 C-6.4308061599731445,-12.426098823547363 -14.93437671661377,-10.388845443725586 -14.93437671661377,-10.388845443725586 C-16.48838233947754,-2.2260079383850098 -17.394441604614258,2.3470146656036377 -14.928336143493652,10.900322914123535 C-14.928336143493652,10.900322914123535 -7.025900840759277,12.732687950134277 -0.5588533282279968,12.747992515563965 C5.908194065093994,12.763297080993652 13.523704528808594,11.178287506103516 13.523704528808594,11.178287506103516 C15.508794784545898,2.808295488357544 15.228792190551758,-1.8445464372634888 13.51766300201416,-10.110880851745605z"></path></g></g></g><g clip-path="url(#__lottie_element_207)" transform="matrix(1,0,0,1,0,0)" opacity="1" style="display: block;"><g transform="matrix(1,0,0,1,137.45285034179688,390.0320129394531)" opacity="1" style="display: block;"><g opacity="1" transform="matrix(1.5932979583740234,-0.05872989073395729,0.05872989073395729,1.5932979583740234,0,0)"><path stroke-linecap="butt" stroke-linejoin="miter" fill-opacity="0" stroke-miterlimit="4" stroke="#000000" stroke-opacity="1" stroke-width="3.42748px" d=" M14.228795051574707,-10.8857421875 C14.228795051574707,-10.8857421875 6.703325271606445,-13.115789413452148 -0.05125094950199127,-13.255528450012207 C-6.805827617645264,-13.395267486572266 -15.416029930114746,-11.185531616210938 -15.416029930114746,-11.185531616210938 C-17.03413963317871,-2.472446918487549 -17.977739334106445,2.4087491035461426 -15.407120704650879,11.539118766784668 C-15.407120704650879,11.539118766784668 -7.4166364669799805,13.63376235961914 -0.45147275924682617,13.612649917602539 C6.51369047164917,13.591536521911621 14.237704277038574,11.838909149169922 14.237704277038574,11.838909149169922 C16.304983139038086,2.9048259258270264 16.012632369995117,-2.0618019104003906 14.228795051574707,-10.8857421875z"></path></g></g></g><g clip-path="url(#__lottie_element_200)" transform="matrix(1,0,0,1,0,0)" opacity="1" style="display: block;"><g transform="matrix(1,0,0,1,157.2867431640625,332.0003662109375)" opacity="1" style="display: block;"><g opacity="1" transform="matrix(1.5932979583740234,-0.05872989073395729,0.05872989073395729,1.5932979583740234,0,0)"><path stroke-linecap="butt" stroke-linejoin="miter" fill-opacity="0" stroke-miterlimit="4" stroke="#000000" stroke-opacity="1" stroke-width="3.60485px" d=" M14.88359546661377,-11.599224090576172 C14.88359546661377,-11.599224090576172 7.296917915344238,-14.010713577270508 0.07288781553506851,-14.149189949035645 C-7.151142120361328,-14.287665367126465 -15.859530448913574,-11.919110298156738 -15.859530448913574,-11.919110298156738 C-17.536666870117188,-2.6993649005889893 -18.51483154296875,2.4655933380126953 -15.847979545593262,12.127313613891602 C-15.847979545593262,12.127313613891602 -7.776420593261719,14.463459014892578 -0.3525981307029724,14.408814430236816 C7.071224212646484,14.354168891906738 14.895146369934082,12.447200775146484 14.895146369934082,12.447200775146484 C17.038101196289062,2.9937098026275635 16.73438262939453,-2.261847972869873 14.88359546661377,-11.599224090576172z"></path></g></g></g><g clip-path="url(#__lottie_element_193)" transform="matrix(1,0,0,1,0,0)" opacity="1" style="display: block;"><g transform="matrix(1,0,0,1,186.09388732910156,275.0776062011719)" opacity="1" style="display: block;"><g opacity="1" transform="matrix(1.5932979583740234,-0.05872989073395729,0.05872989073395729,1.5932979583740234,0,0)"><path stroke-linecap="butt" stroke-linejoin="miter" fill-opacity="0" stroke-miterlimit="4" stroke="#000000" stroke-opacity="1" stroke-width="3.78572px" d=" M15.463951110839844,-12.231590270996094 C15.463951110839844,-12.231590270996094 7.823024749755859,-14.803894996643066 0.18291325867176056,-14.941250801086426 C-7.457198143005371,-15.078606605529785 -16.252609252929688,-12.56928825378418 -16.252609252929688,-12.56928825378418 C-17.9820613861084,-2.900484323501587 -18.990861892700195,2.515974998474121 -16.238718032836914,12.648636817932129 C-16.238718032836914,12.648636817932129 -8.095300674438477,15.19882869720459 -0.2649645507335663,15.114462852478027 C7.565371990203857,15.030097961425781 15.477843284606934,12.986335754394531 15.477843284606934,12.986335754394531 C17.6878719329834,3.072488307952881 17.37407684326172,-2.439150810241699 15.463951110839844,-12.231590270996094z"></path></g></g></g><g clip-path="url(#__lottie_element_186)" transform="matrix(1,0,0,1,0,0)" opacity="1" style="display: block;"><g transform="matrix(1,0,0,1,225.60076904296875,221.5974578857422)" opacity="1" style="display: block;"><g opacity="1" transform="matrix(1.5932979583740234,-0.05872989073395729,0.05872989073395729,1.5932979583740234,0,0)"><path stroke-linecap="butt" stroke-linejoin="miter" fill-opacity="0" stroke-miterlimit="4" stroke="#000000" stroke-opacity="1" stroke-width="3.96586px" d=" M15.966409683227539,-12.779078483581543 C15.966409683227539,-12.779078483581543 8.278515815734863,-15.49061107635498 0.2781706750392914,-15.626997947692871 C-7.722174167633057,-15.763384819030762 -16.592927932739258,-13.132197380065918 -16.592927932739258,-13.132197380065918 C-18.367671966552734,-3.0746090412139893 -19.402997970581055,2.5595943927764893 -16.577009201049805,13.09998607635498 C-16.577009201049805,13.09998607635498 -8.371379852294922,15.835493087768555 -0.1890934854745865,15.725397109985352 C7.99319314956665,15.615301132202148 15.982328414916992,13.453105926513672 15.982328414916992,13.453105926513672 C18.250429153442383,3.140692949295044 17.92790985107422,-2.5926551818847656 15.966409683227539,-12.779078483581543z"></path></g></g></g><g clip-path="url(#__lottie_element_179)" transform="matrix(1,0,0,1,0,0)" opacity="1" style="display: block;"><g transform="matrix(1,0,0,1,277.46337890625,175.43125915527344)" opacity="1" style="display: block;"><g opacity="1" transform="matrix(1.5932979583740234,-0.05872989073395729,0.05872989073395729,1.5932979583740234,0,0)"><path stroke-linecap="butt" stroke-linejoin="miter" fill-opacity="0" stroke-miterlimit="4" stroke="#000000" stroke-opacity="1" stroke-width="4.14194px" d=" M16.393688201904297,-13.244647979736328 C16.393688201904297,-13.244647979736328 8.665853500366211,-16.0745792388916 0.35917526483535767,-16.210142135620117 C-7.947503089904785,-16.345703125 -16.882326126098633,-13.610880851745605 -16.882326126098633,-13.610880851745605 C-18.695587158203125,-3.22268009185791 -19.753467559814453,2.596687078475952 -16.86468505859375,13.483802795410156 C-16.86468505859375,13.483802795410156 -8.60615062713623,16.37689781188965 -0.12457456439733505,16.24492073059082 C8.357001304626465,16.112943649291992 16.411331176757812,13.850035667419434 16.411331176757812,13.850035667419434 C18.72881317138672,3.198692560195923 18.398876190185547,-2.723191738128662 16.393688201904297,-13.244647979736328z"></path></g></g></g><g clip-path="url(#__lottie_element_172)" transform="matrix(1,0,0,1,0,0)" opacity="1" style="display: block;"><g transform="matrix(1,0,0,1,342.33917236328125,142.7185516357422)" opacity="1" style="display: block;"><g opacity="1" transform="matrix(1.5932979583740234,-0.05872989073395729,0.05872989073395729,1.5932979583740234,0,0)"><path stroke-linecap="butt" stroke-linejoin="miter" fill-opacity="0" stroke-miterlimit="4" stroke="#000000" stroke-opacity="1" stroke-width="4.31104px" d=" M16.750808715820312,-13.633772850036621 C16.750808715820312,-13.633772850036621 8.989591598510742,-16.562660217285156 0.42687904834747314,-16.697532653808594 C-8.135833740234375,-16.832406997680664 -17.12420654296875,-14.010966300964355 -17.12420654296875,-14.010966300964355 C-18.96965980529785,-3.346438407897949 -20.0463924407959,2.6276893615722656 -17.10512351989746,13.804596900939941 C-17.10512351989746,13.804596900939941 -8.802372932434082,16.829404830932617 -0.07064953446388245,16.679140090942383 C8.661073684692383,16.528873443603516 16.7698917388916,14.181790351867676 16.7698917388916,14.181790351867676 C19.128646850585938,3.247168779373169 18.792509078979492,-2.832294464111328 16.750808715820312,-13.633772850036621z"></path></g></g></g><g clip-path="url(#__lottie_element_165)" transform="matrix(1,0,0,1,0,0)" opacity="1" style="display: block;"><g transform="matrix(1,0,0,1,417.8255310058594,132.2269287109375)" opacity="1" style="display: block;"><g opacity="1" transform="matrix(1.5932979583740234,-0.05872989073395729,0.05872989073395729,1.5932979583740234,0,0)"><path stroke-linecap="butt" stroke-linejoin="miter" fill-opacity="0" stroke-miterlimit="4" stroke="#000000" stroke-opacity="1" stroke-width="4.4703px" d=" M17.04339027404785,-13.952574729919434 C17.04339027404785,-13.952574729919434 9.254823684692383,-16.962533950805664 0.48234736919403076,-17.096843719482422 C-8.290128707885742,-17.23115348815918 -17.322372436523438,-14.33874797821045 -17.322372436523438,-14.33874797821045 C-19.19420051574707,-3.447831153869629 -20.286378860473633,2.6530888080596924 -17.30211067199707,14.06741714477539 C-17.30211067199707,14.06741714477539 -8.963133811950684,17.20013427734375 -0.026469845324754715,17.03488540649414 C8.91019344329834,16.86963653564453 17.06365203857422,14.453590393066406 17.06365203857422,14.453590393066406 C19.45622444152832,3.286884307861328 19.115005493164062,-2.921679973602295 17.04339027404785,-13.952574729919434z"></path></g></g></g><g clip-path="url(#__lottie_element_158)" transform="matrix(1,0,0,1,0,0)" opacity="1" style="display: block;"><g transform="matrix(1,0,0,1,495.54962158203125,152.27542114257812)" opacity="1" style="display: block;"><g opacity="1" transform="matrix(1.5932979583740234,-0.05872989073395729,0.05872989073395729,1.5932979583740234,0,0)"><path stroke-linecap="butt" stroke-linejoin="miter" fill-opacity="0" stroke-miterlimit="4" stroke="#000000" stroke-opacity="1" stroke-width="4.61671px" d=" M17.27692413330078,-14.207036972045898 C17.27692413330078,-14.207036972045898 9.466526985168457,-17.281707763671875 0.5266212224960327,-17.41556739807129 C-8.413285255432129,-17.54942512512207 -17.480546951293945,-14.600377082824707 -17.480546951293945,-14.600377082824707 C-19.37342643737793,-3.5287609100341797 -20.47793197631836,2.6733622550964355 -17.45934295654297,14.277195930480957 C-17.45934295654297,14.277195930480957 -9.091449737548828,17.496044158935547 0.00879360269755125,17.318836212158203 C9.109037399291992,17.14162826538086 17.298128128051758,14.670536041259766 17.298128128051758,14.670536041259766 C19.717689514160156,3.318584442138672 19.372417449951172,-2.9930260181427 17.27692413330078,-14.207036972045898z"></path></g></g></g><g clip-path="url(#__lottie_element_151)" transform="matrix(1,0,0,1,0,0)" opacity="1" style="display: block;"><g transform="matrix(1,0,0,1,563.530029296875,203.45423889160156)" opacity="1" style="display: block;"><g opacity="1" transform="matrix(1.5932979583740234,-0.05872989073395729,0.05872989073395729,1.5932979583740234,0,0)"><path stroke-linecap="butt" stroke-linejoin="miter" fill-opacity="0" stroke-miterlimit="4" stroke="#000000" stroke-opacity="1" stroke-width="4.74681px" d=" M17.45648765563965,-14.402692794799805 C17.45648765563965,-14.402692794799805 9.629305839538574,-17.52712059020996 0.5606634020805359,-17.660633087158203 C-8.507979393005371,-17.794143676757812 -17.6021671295166,-14.801543235778809 -17.6021671295166,-14.801543235778809 C-19.511232376098633,-3.5909879207611084 -20.625215530395508,2.688950300216675 -17.580238342285156,14.438494682312012 C-17.580238342285156,14.438494682312012 -9.190112113952637,17.723569869995117 0.03590765967965126,17.537166595458984 C9.261927604675293,17.35076332092285 17.478416442871094,14.837346076965332 17.478416442871094,14.837346076965332 C19.918729782104492,3.342958688735962 19.57033920288086,-3.047883987426758 17.45648765563965,-14.402692794799805z"></path></g></g></g><g clip-path="url(#__lottie_element_144)" transform="matrix(1,0,0,1,0,0)" opacity="1" style="display: block;"><g transform="matrix(1,0,0,1,614.6435546875,278.37603759765625)" opacity="1" style="display: block;"><g opacity="1" transform="matrix(1.5932979583740234,-0.05872989073395729,0.05872989073395729,1.5932979583740234,0,0)"><path stroke-linecap="butt" stroke-linejoin="miter" fill-opacity="0" stroke-miterlimit="4" stroke="#000000" stroke-opacity="1" stroke-width="4.85639px" d=" M17.58666229248047,-14.544533729553223 C17.58666229248047,-14.544533729553223 9.747312545776367,-17.705032348632812 0.585342288017273,-17.838293075561523 C-8.576628684997559,-17.971553802490234 -17.69033432006836,-14.947380065917969 -17.69033432006836,-14.947380065917969 C-19.611135482788086,-3.636099338531494 -20.731990814208984,2.7002511024475098 -17.66788101196289,14.555428504943848 C-17.66788101196289,14.555428504943848 -9.261637687683105,17.888513565063477 0.0555640272796154,17.695444107055664 C9.37276554107666,17.50237464904785 17.609115600585938,14.958274841308594 17.609115600585938,14.958274841308594 C20.06447410583496,3.360629081726074 19.713825225830078,-3.087653398513794 17.58666229248047,-14.544533729553223z"></path></g></g></g><g clip-path="url(#__lottie_element_137)" transform="matrix(1,0,0,1,0,0)" opacity="1" style="display: block;"><g transform="matrix(1,0,0,1,648.3766479492188,369.3381042480469)" opacity="1" style="display: block;"><g opacity="1" transform="matrix(1.5932979583740234,-0.05872989073395729,0.05872989073395729,1.5932979583740234,0,0)"><path stroke-linecap="butt" stroke-linejoin="miter" fill-opacity="0" stroke-miterlimit="4" stroke="#000000" stroke-opacity="1" stroke-width="4.94001px" d=" M17.671533584594727,-14.63701057434082 C17.671533584594727,-14.63701057434082 9.824250221252441,-17.821025848388672 0.6014323234558105,-17.95412254333496 C-8.62138557434082,-18.087221145629883 -17.747817993164062,-15.042461395263672 -17.747817993164062,-15.042461395263672 C-19.67626953125,-3.665510892868042 -20.801605224609375,2.7076189517974854 -17.725021362304688,14.63166618347168 C-17.725021362304688,14.63166618347168 -9.308270454406738,17.99605369567871 0.0683794915676117,17.79863739013672 C9.445029258728027,17.60122299194336 17.6943302154541,15.037117958068848 17.6943302154541,15.037117958068848 C20.159496307373047,3.3721494674682617 19.807373046875,-3.113581895828247 17.671533584594727,-14.63701057434082z"></path></g></g></g><g clip-path="url(#__lottie_element_130)" transform="matrix(1,0,0,1,0,0)" opacity="1" style="display: block;"><g transform="matrix(1,0,0,1,666.5442504882812,471.71075439453125)" opacity="1" style="display: block;"><g opacity="1" transform="matrix(1.5932979583740234,-0.05872989073395729,0.05872989073395729,1.5932979583740234,0,0)"><path stroke-linecap="butt" stroke-linejoin="miter" fill-opacity="0" stroke-miterlimit="4" stroke="#000000" stroke-opacity="1" stroke-width="4.99023px" d=" M17.714725494384766,-14.684073448181152 C17.714725494384766,-14.684073448181152 9.863405227661133,-17.88005828857422 0.6096208691596985,-18.013071060180664 C-8.644164085388184,-18.146085739135742 -17.77707290649414,-15.090849876403809 -17.77707290649414,-15.090849876403809 C-19.70941734313965,-3.680479049682617 -20.837032318115234,2.7113685607910156 -17.75410270690918,14.670465469360352 C-17.75410270690918,14.670465469360352 -9.332002639770508,18.050783157348633 0.0749015286564827,17.851154327392578 C9.481805801391602,17.651527404785156 17.737695693969727,15.077241897583008 17.737695693969727,15.077241897583008 C20.207855224609375,3.3780124187469482 19.854982376098633,-3.1267776489257812 17.714725494384766,-14.684073448181152z"></path></g></g></g><g clip-path="url(#__lottie_element_123)" transform="matrix(1,0,0,1,0,0)" opacity="1" style="display: block;"><g transform="matrix(1,0,0,1,668.4564819335938,584.152099609375)" opacity="1" style="display: block;"><g opacity="1" transform="matrix(1.5932979583740234,-0.05872989073395729,0.05872989073395729,1.5932979583740234,0,0)"><path stroke-linecap="butt" stroke-linejoin="miter" fill-opacity="0" stroke-miterlimit="4" stroke="#000000" stroke-opacity="1" stroke-width="4.9964px" d=" M17.719406127929688,-14.689172744750977 C17.719406127929688,-14.689172744750977 9.867648124694824,-17.88645362854004 0.6105080842971802,-18.019458770751953 C-8.646631240844727,-18.152463912963867 -17.780242919921875,-15.09609317779541 -17.780242919921875,-15.09609317779541 C-19.713008880615234,-3.682100772857666 -20.840871810913086,2.7117748260498047 -17.757253646850586,14.67466926574707 C-17.757253646850586,14.67466926574707 -9.334574699401855,18.056713104248047 0.07560820877552032,17.85684585571289 C9.485791206359863,17.656978607177734 17.742395401000977,15.081589698791504 17.742395401000977,15.081589698791504 C20.21309471130371,3.378647804260254 19.860139846801758,-3.128207206726074 17.719406127929688,-14.689172744750977z"></path></g></g></g><g clip-path="url(#__lottie_element_116)" transform="matrix(1,0,0,1,0,0)" opacity="1" style="display: block;"><g transform="matrix(1,0,0,1,651.8539428710938,696.1885375976562)" opacity="1" style="display: block;"><g opacity="1" transform="matrix(1.5932979583740234,-0.05872989073395729,0.05872989073395729,1.5932979583740234,0,0)"><path stroke-linecap="butt" stroke-linejoin="miter" fill-opacity="0" stroke-miterlimit="4" stroke="#000000" stroke-opacity="1" stroke-width="4.95609px" d=" M17.686140060424805,-14.65292739868164 C17.686140060424805,-14.65292739868164 9.837492942810059,-17.84099006652832 0.6042017340660095,-17.97406005859375 C-8.62908935546875,-18.10713005065918 -17.757713317871094,-15.058826446533203 -17.757713317871094,-15.058826446533203 C-19.68747901916504,-3.6705732345581055 -20.813587188720703,2.7088871002197266 -17.7348575592041,14.64478874206543 C-17.7348575592041,14.64478874206543 -9.316296577453613,18.014562606811523 0.07058528810739517,17.81639862060547 C9.457468032836914,17.618236541748047 17.708995819091797,15.050687789916992 17.708995819091797,15.050687789916992 C20.175851821899414,3.3741323947906494 19.823474884033203,-3.118044853210449 17.686140060424805,-14.65292739868164z"></path></g></g></g><g clip-path="url(#__lottie_element_109)" transform="matrix(1,0,0,1,0,0)" opacity="1" style="display: block;"><g transform="matrix(1,0,0,1,621.0946044921875,798.7840576171875)" opacity="1" style="display: block;"><g opacity="1" transform="matrix(1.5932979583740234,-0.05872989073395729,0.05872989073395729,1.5932979583740234,0,0)"><path stroke-linecap="butt" stroke-linejoin="miter" fill-opacity="0" stroke-miterlimit="4" stroke="#000000" stroke-opacity="1" stroke-width="4.88004px" d=" M17.61203956604004,-14.572186470031738 C17.61203956604004,-14.572186470031738 9.770318984985352,-17.739717483520508 0.5901535749435425,-17.872928619384766 C-8.590011596679688,-18.006141662597656 -17.707523345947266,-14.975811004638672 -17.707523345947266,-14.975811004638672 C-19.630611419677734,-3.6448941230773926 -20.7528076171875,2.7024543285369873 -17.684967041015625,14.578225135803223 C-17.684967041015625,14.578225135803223 -9.275582313537598,17.920669555664062 0.05939615145325661,17.726301193237305 C9.394373893737793,17.531932830810547 17.634597778320312,14.981850624084473 17.634597778320312,14.981850624084473 C20.09288787841797,3.3640739917755127 19.741798400878906,-3.0954065322875977 17.61203956604004,-14.572186470031738z"></path></g></g></g><g clip-path="url(#__lottie_element_102)" transform="matrix(1,0,0,1,0,0)" opacity="1" style="display: block;"><g transform="matrix(1,0,0,1,576.8714599609375,889.8657836914062)" opacity="1" style="display: block;"><g opacity="1" transform="matrix(1.5932979583740234,-0.05872989073395729,0.05872989073395729,1.5932979583740234,0,0)"><path stroke-linecap="butt" stroke-linejoin="miter" fill-opacity="0" stroke-miterlimit="4" stroke="#000000" stroke-opacity="1" stroke-width="4.77639px" d=" M17.49358558654785,-14.443116188049316 C17.49358558654785,-14.443116188049316 9.66293716430664,-17.577823638916016 0.5676966905593872,-17.71126365661621 C-8.527544021606445,-17.84470558166504 -17.627294540405273,-14.843106269836426 -17.627294540405273,-14.843106269836426 C-19.539703369140625,-3.603844165802002 -20.6556453704834,2.692171096801758 -17.605215072631836,14.471819877624512 C-17.605215072631836,14.471819877624512 -9.21049690246582,17.77057647705078 0.04150957614183426,17.582273483276367 C9.2935152053833,17.393970489501953 17.51566505432129,14.871809959411621 17.51566505432129,14.871809959411621 C19.96026611328125,3.347994565963745 19.61123275756836,-3.059217929840088 17.49358558654785,-14.443116188049316z"></path></g></g></g><g clip-path="url(#__lottie_element_95)" transform="matrix(1,0,0,1,0,0)" opacity="1" style="display: block;"><g transform="matrix(1,0,0,1,519.346923828125,966.4039306640625)" opacity="1" style="display: block;"><g opacity="1" transform="matrix(1.5932979583740234,-0.05872989073395729,0.05872989073395729,1.5932979583740234,0,0)"><path stroke-linecap="butt" stroke-linejoin="miter" fill-opacity="0" stroke-miterlimit="4" stroke="#000000" stroke-opacity="1" stroke-width="4.65101px" d=" M17.326812744140625,-14.261396408081055 C17.326812744140625,-14.261396408081055 9.51175308227539,-17.349891662597656 0.5360792875289917,-17.483654022216797 C-8.439594268798828,-17.617416381835938 -17.51433753967285,-14.656268119812012 -17.51433753967285,-14.656268119812012 C-19.411712646484375,-3.5460495948791504 -20.51885223388672,2.6776931285858154 -17.492931365966797,14.322010040283203 C-17.492931365966797,14.322010040283203 -9.118861198425293,17.55925750732422 0.01632678136229515,17.37949562072754 C9.151515007019043,17.19973373413086 17.34821891784668,14.71688175201416 17.34821891784668,14.71688175201416 C19.773544311523438,3.3253564834594727 19.427406311035156,-3.008267402648926 17.326812744140625,-14.261396408081055z"></path></g></g></g><g clip-path="url(#__lottie_element_88)" transform="matrix(1,0,0,1,0,0)" opacity="1" style="display: block;"><g transform="matrix(1,0,0,1,448.4329528808594,1022.6478881835938)" opacity="1" style="display: block;"><g opacity="1" transform="matrix(1.5932979583740234,-0.05872989073395729,0.05872989073395729,1.5932979583740234,0,0)"><path stroke-linecap="butt" stroke-linejoin="miter" fill-opacity="0" stroke-miterlimit="4" stroke="#000000" stroke-opacity="1" stroke-width="4.50834px" d=" M17.10726547241211,-14.022172927856445 C17.10726547241211,-14.022172927856445 9.312727928161621,-17.049833297729492 0.49445685744285583,-17.184019088745117 C-8.323813438415527,-17.318204879760742 -17.36563491821289,-14.410306930541992 -17.36563491821289,-14.410306930541992 C-19.243221282958984,-3.469966411590576 -20.338769912719727,2.6586337089538574 -17.345115661621094,14.124794960021973 C-17.345115661621094,14.124794960021973 -8.99822998046875,17.281068801879883 -0.016824839636683464,17.112550735473633 C8.964579582214355,16.94403076171875 17.127784729003906,14.512928009033203 17.127784729003906,14.512928009033203 C19.527738571166992,3.2955546379089355 19.18541145324707,-2.9411940574645996 17.10726547241211,-14.022172927856445z"></path></g></g></g><g clip-path="url(#__lottie_element_81)" transform="matrix(1,0,0,1,0,0)" opacity="1" style="display: block;"><g transform="matrix(1,0,0,1,366.72833251953125,1047.401123046875)" opacity="1" style="display: block;"><g opacity="1" transform="matrix(1.5932979583740234,-0.05872989073395729,0.05872989073395729,1.5932979583740234,0,0)"><path stroke-linecap="butt" stroke-linejoin="miter" fill-opacity="0" stroke-miterlimit="4" stroke="#000000" stroke-opacity="1" stroke-width="4.35199px" d=" M16.829986572265625,-13.720046043395996 C16.829986572265625,-13.720046043395996 9.061367988586426,-16.67087173461914 0.4418896734714508,-16.805593490600586 C-8.17758846282959,-16.9403133392334 -17.177833557128906,-14.099669456481934 -17.177833557128906,-14.099669456481934 C-19.030424118041992,-3.3738770484924316 -20.11133575439453,2.6345627307891846 -17.158432006835938,13.875720977783203 C-17.158432006835938,13.875720977783203 -8.845877647399902,16.929729461669922 -0.058693792670965195,16.775409698486328 C8.728489875793457,16.621089935302734 16.849388122558594,14.255343437194824 16.849388122558594,14.255343437194824 C19.217294692993164,3.2579164505004883 18.87978172302246,-2.8564836978912354 16.829986572265625,-13.720046043395996z"></path></g></g></g><g clip-path="url(#__lottie_element_74)" transform="matrix(1,0,0,1,0,0)" opacity="1" style="display: block;"><g transform="matrix(1,0,0,1,287.9759521484375,1029.8096923828125)" opacity="1" style="display: block;"><g opacity="1" transform="matrix(1.5932979583740234,-0.05872989073395729,0.05872989073395729,1.5932979583740234,0,0)"><path stroke-linecap="butt" stroke-linejoin="miter" fill-opacity="0" stroke-miterlimit="4" stroke="#000000" stroke-opacity="1" stroke-width="4.18509px" d=" M16.489572525024414,-13.349125862121582 C16.489572525024414,-13.349125862121582 8.752775192260742,-16.205625534057617 0.377353310585022,-16.34100341796875 C-7.998068809509277,-16.476381301879883 -16.947269439697266,-13.718301773071289 -16.947269439697266,-13.718301773071289 C-18.769174575805664,-3.255908489227295 -19.832115173339844,2.605010986328125 -16.929241180419922,13.569933891296387 C-16.929241180419922,13.569933891296387 -8.658835411071777,16.49839210510254 -0.11009601503610611,16.36150550842285 C8.438643455505371,16.224618911743164 16.50760269165039,13.939109802246094 16.50760269165039,13.939109802246094 C18.836166381835938,3.2117080688476562 18.50456428527832,-2.7524852752685547 16.489572525024414,-13.349125862121582z"></path></g></g></g><g clip-path="url(#__lottie_element_67)" transform="matrix(1,0,0,1,0,0)" opacity="1" style="display: block;"><g transform="matrix(1,0,0,1,228.7278594970703,980.5836181640625)" opacity="1" style="display: block;"><g opacity="1" transform="matrix(1.5932979583740234,-0.05872989073395729,0.05872989073395729,1.5932979583740234,0,0)"><path stroke-linecap="butt" stroke-linejoin="miter" fill-opacity="0" stroke-miterlimit="4" stroke="#000000" stroke-opacity="1" stroke-width="4.01049px" d=" M16.080394744873047,-12.903277397155762 C16.080394744873047,-12.903277397155762 8.381844520568848,-15.646394729614258 0.29978007078170776,-15.782562255859375 C-7.782284736633301,-15.918728828430176 -16.670129776000977,-13.259894371032715 -16.670129776000977,-13.259894371032715 C-18.455148696899414,-3.114109516143799 -19.496492385864258,2.5694894790649414 -16.653751373291016,13.202376365661621 C-16.653751373291016,13.202376365661621 -8.434009552001953,15.9799222946167 -0.17188192903995514,15.863988876342773 C8.090245246887207,15.748055458068848 16.096773147583008,13.558993339538574 16.096773147583008,13.558993339538574 C18.3780460357666,3.156165361404419 18.05354881286621,-2.6274781227111816 16.080394744873047,-12.903277397155762z"></path></g></g></g><g clip-path="url(#__lottie_element_60)" transform="matrix(1,0,0,1,0,0)" opacity="1" style="display: block;"><g transform="matrix(1,0,0,1,188.7831268310547,918.9857788085938)" opacity="1" style="display: block;"><g opacity="1" transform="matrix(1.5932979583740234,-0.05872989073395729,0.05872989073395729,1.5932979583740234,0,0)"><path stroke-linecap="butt" stroke-linejoin="miter" fill-opacity="0" stroke-miterlimit="4" stroke="#000000" stroke-opacity="1" stroke-width="3.83108px" d=" M15.597168922424316,-12.37674617767334 C15.597168922424316,-12.37674617767334 7.943789005279541,-14.98596477508545 0.20816892385482788,-15.123063087463379 C-7.527451515197754,-15.260162353515625 -16.342838287353516,-12.71853256225586 -16.342838287353516,-12.71853256225586 C-18.08429718017578,-2.9466500282287598 -19.10013198852539,2.5275399684906006 -16.32840919494629,12.768303871154785 C-16.32840919494629,12.768303871154785 -8.168498039245605,15.36762809753418 -0.2448488026857376,15.276440620422363 C7.678800106048584,15.185253143310547 15.611598014831543,13.110090255737305 15.611598014831543,13.110090255737305 C17.83702278137207,3.090571403503418 17.520915985107422,-2.4798495769500732 15.597168922424316,-12.37674617767334z"></path></g></g></g><g clip-path="url(#__lottie_element_53)" transform="matrix(1,0,0,1,0,0)" opacity="1" style="display: block;"><g transform="matrix(1,0,0,1,162.02781677246094,854.5269165039062)" opacity="1" style="display: block;"><g opacity="1" transform="matrix(1.5932979583740234,-0.05872989073395729,0.05872989073395729,1.5932979583740234,0,0)"><path stroke-linecap="butt" stroke-linejoin="miter" fill-opacity="0" stroke-miterlimit="4" stroke="#000000" stroke-opacity="1" stroke-width="3.65004px" d=" M15.036352157592773,-11.765670776367188 C15.036352157592773,-11.765670776367188 7.435396194458008,-14.219490051269531 0.10184797644615173,-14.357670783996582 C-7.2316999435424805,-14.495851516723633 -15.962994575500488,-12.090246200561523 -15.962994575500488,-12.090246200561523 C-17.653900146484375,-2.7523021697998047 -18.64012908935547,2.4788544178009033 -15.950827598571777,12.264533042907715 C-15.950827598571777,12.264533042907715 -7.860353946685791,14.657017707824707 -0.32953181862831116,14.594550132751465 C7.201290607452393,14.532082557678223 15.048519134521484,12.58910846710205 15.048519134521484,12.58910846710205 C17.209129333496094,3.0144453048706055 16.902759552001953,-2.308516263961792 15.036352157592773,-11.765670776367188z"></path></g></g></g><g clip-path="url(#__lottie_element_46)" transform="matrix(1,0,0,1,0,0)" opacity="1" style="display: block;"><g transform="matrix(1,0,0,1,144.0299072265625,790.733642578125)" opacity="1" style="display: block;"><g opacity="1" transform="matrix(1.5932979583740234,-0.05872989073395729,0.05872989073395729,1.5932979583740234,0,0)"><path stroke-linecap="butt" stroke-linejoin="miter" fill-opacity="0" stroke-miterlimit="4" stroke="#000000" stroke-opacity="1" stroke-width="3.47132px" d=" M14.399295806884766,-11.07152271270752 C14.399295806884766,-11.07152271270752 6.857888698577881,-13.348814964294434 -0.018926963210105896,-13.488224983215332 C-6.895742416381836,-13.62763500213623 -15.531511306762695,-11.376544952392578 -15.531511306762695,-11.376544952392578 C-17.164989471435547,-2.5315332412719727 -18.117589950561523,2.423550605773926 -15.5219144821167,11.692276954650879 C-15.5219144821167,11.692276954650879 -7.510318756103516,13.849803924560547 -0.4257272183895111,13.81995964050293 C6.658864498138428,13.790115356445312 14.408892631530762,11.997299194335938 14.408892631530762,11.997299194335938 C16.49587631225586,2.9279699325561523 16.200565338134766,-2.113891124725342 14.399295806884766,-11.07152271270752z"></path></g></g></g><g clip-path="url(#__lottie_element_39)" transform="matrix(1,0,0,1,0,0)" opacity="1" style="display: block;"><g transform="matrix(1,0,0,1,131.97958374023438,728.973388671875)" opacity="1" style="display: block;"><g opacity="1" transform="matrix(1.5932979583740234,-0.05872989073395729,0.05872989073395729,1.5932979583740234,0,0)"><path stroke-linecap="butt" stroke-linejoin="miter" fill-opacity="0" stroke-miterlimit="4" stroke="#000000" stroke-opacity="1" stroke-width="3.3005px" d=" M13.699240684509277,-10.308730125427246 C13.699240684509277,-10.308730125427246 6.223271369934082,-12.392040252685547 -0.15164527297019958,-12.532800674438477 C-6.526562213897705,-12.673561096191406 -15.05735969543457,-10.592267036437988 -15.05735969543457,-10.592267036437988 C-16.62773323059082,-2.2889323234558105 -17.543376922607422,2.3627777099609375 -15.050586700439453,11.063429832458496 C-15.050586700439453,11.063429832458496 -7.125669002532959,12.962763786315918 -0.5314353108406067,12.968770027160645 C6.062798500061035,12.974776268005371 13.706013679504395,11.346967697143555 13.706013679504395,11.346967697143555 C15.712089538574219,2.8329432010650635 15.428934097290039,-1.9000194072723389 13.699240684509277,-10.308730125427246z"></path></g></g></g><g clip-path="url(#__lottie_element_32)" transform="matrix(1,0,0,1,0,0)" opacity="1" style="display: block;"><g transform="matrix(1,0,0,1,124.18814849853516,669.7714233398438)" opacity="1" style="display: block;"><g opacity="1" transform="matrix(1.5932979583740234,-0.05872989073395729,0.05872989073395729,1.5932979583740234,0,0)"><path stroke-linecap="butt" stroke-linejoin="miter" fill-opacity="0" stroke-miterlimit="4" stroke="#000000" stroke-opacity="1" stroke-width="3.14693px" d=" M12.975972175598145,-9.520644187927246 C12.975972175598145,-9.520644187927246 5.567611217498779,-11.403539657592773 -0.2887643873691559,-11.545695304870605 C-6.145140171051025,-11.687850952148438 -14.567485809326172,-9.781983375549316 -14.567485809326172,-9.781983375549316 C-16.072660446166992,-2.038287401199341 -16.950124740600586,2.2999894618988037 -14.563629150390625,10.413731575012207 C-14.563629150390625,10.413731575012207 -6.728264808654785,12.046311378479004 -0.640648603439331,12.08935546875 C5.446967601776123,12.132400512695312 12.979827880859375,10.675071716308594 12.979827880859375,10.675071716308594 C14.902313232421875,2.7347652912139893 14.631714820861816,-1.67905592918396 12.975972175598145,-9.520644187927246z"></path></g></g></g><g clip-path="url(#__lottie_element_25)" transform="matrix(1,0,0,1,0,0)" opacity="1" style="display: block;"><g transform="matrix(1,0,0,1,119.47584533691406,613.3314208984375)" opacity="1" style="display: block;"><g opacity="1" transform="matrix(1.5932979583740234,-0.05872989073395729,0.05872989073395729,1.5932979583740234,0,0)"><path stroke-linecap="butt" stroke-linejoin="miter" fill-opacity="0" stroke-miterlimit="4" stroke="#000000" stroke-opacity="1" stroke-width="3.0304px" d=" M12.321684837341309,-8.807720184326172 C12.321684837341309,-8.807720184326172 4.974483966827393,-10.509316444396973 -0.4128058850765228,-10.65273380279541 C-5.800096035003662,-10.796152114868164 -14.124332427978516,-9.048979759216309 -14.124332427978516,-9.048979759216309 C-15.570528030395508,-1.8115472793579102 -16.413454055786133,2.243189811706543 -14.123115539550781,9.825997352600098 C-14.123115539550781,9.825997352600098 -6.368762493133545,11.217264175415039 -0.7394457459449768,11.293814659118652 C4.889870643615723,11.370365142822266 12.322901725769043,10.067255973815918 12.322901725769043,10.067255973815918 C14.169768333435059,2.645951271057129 13.910530090332031,-1.4791666269302368 12.321684837341309,-8.807720184326172z"></path></g></g></g></g></g><g transform="matrix(1.362030029296875,0,0,1.356279969215393,474.99542236328125,611.2977905273438)" opacity="1" style="display: block;"><g opacity="1" transform="matrix(1,0,0,1,-75.48600006103516,-23.85300064086914)"><path stroke-linecap="butt" stroke-linejoin="miter" fill-opacity="0" stroke-miterlimit="4" stroke="#000000" stroke-opacity="1" stroke-width="6px" d=" M21.43899917602539,-308.0840148925781 C113.62699890136719,-308.0840148925781 181.60499572753906,-181.71499633789062 181.60499572753906,0 C181.60499572753906,181.71499633789062 76.427001953125,316.95599365234375 -15.76099967956543,316.95599365234375 C-107.9489974975586,316.95599365234375 -168.1790008544922,154.83900451660156 -164.71800231933594,-12.534000396728516 C-160.9219970703125,-196.08599853515625 -70.7490005493164,-308.0840148925781 21.43899917602539,-308.0840148925781z"></path></g></g><g transform="matrix(1.2473599910736084,0,0,1.2755199670791626,464.16436767578125,610.4901733398438)" opacity="1" style="display: block;"><g opacity="1" transform="matrix(1,0,0,1,-75.48600006103516,-23.85300064086914)"><path stroke-linecap="butt" stroke-linejoin="miter" fill-opacity="0" stroke-miterlimit="4" stroke="#000000" stroke-opacity="1" stroke-width="8px" d=" M19.329999923706055,310.7409973144531 C7.584000110626221,314.82598876953125 -4.190999984741211,316.95599365234375 -15.76099967956543,316.95599365234375 C-101.09200286865234,316.95599365234375 -159.04200744628906,178.05999755859375 -164.4459991455078,24.663999557495117"></path></g></g><g transform="matrix(1.2473599910736084,0,0,1.2755199670791626,464.16436767578125,610.4901733398438)" opacity="1" style="display: block;"><g opacity="1" transform="matrix(1,0,0,1,-75.48600006103516,-23.85300064086914)"><path stroke-linecap="butt" stroke-linejoin="miter" fill-opacity="0" stroke-miterlimit="4" stroke="#000000" stroke-opacity="1" stroke-width="8px" d=" M-10.739999771118164,-303.5379943847656 C-0.13199999928474426,-306.5469970703125 10.640000343322754,-308.0840148925781 21.43899917602539,-308.0840148925781 C21.43899917602539,-308.0840148925781 21.43899917602539,-308.0840148925781 21.43899917602539,-308.0840148925781 C109.80400085449219,-308.0840148925781 175.92599487304688,-191.97799682617188 181.2570037841797,-22.315000534057617"></path></g></g></g></g></svg>