<svg xmlns="http://www.w3.org/2000/svg" xmlns:xlink="http://www.w3.org/1999/xlink" width="500" zoomAndPan="magnify" viewBox="0 0 375 374.999991" height="500" preserveAspectRatio="xMidYMid meet" version="1.0"><defs><clipPath id="ac9bb99b28"><path d="M 125 195 L 200 195 L 200 274.269531 L 125 274.269531 Z M 125 195 " clip-rule="nonzero"/></clipPath><clipPath id="802c7b0a8f"><path d="M 171 195 L 246 195 L 246 274.269531 L 171 274.269531 Z M 171 195 " clip-rule="nonzero"/></clipPath><clipPath id="d2f2936b52"><path d="M 160 112.324219 L 213 112.324219 L 213 165 L 160 165 Z M 160 112.324219 " clip-rule="nonzero"/></clipPath><clipPath id="7d8130468f"><path d="M 146 112.324219 L 227 112.324219 L 227 179 L 146 179 Z M 146 112.324219 " clip-rule="nonzero"/></clipPath><clipPath id="75d690d253"><path d="M 105.386719 145 L 140 145 L 140 179 L 105.386719 179 Z M 105.386719 145 " clip-rule="nonzero"/></clipPath><clipPath id="83fa8a7919"><path d="M 105.386719 135 L 133 135 L 133 174 L 105.386719 174 Z M 105.386719 135 " clip-rule="nonzero"/></clipPath><clipPath id="97d0246e57"><path d="M 105.386719 131 L 134 131 L 134 171 L 105.386719 171 Z M 105.386719 131 " clip-rule="nonzero"/></clipPath><clipPath id="e1e07557ea"><path d="M 105.386719 127 L 140 127 L 140 167 L 105.386719 167 Z M 105.386719 127 " clip-rule="nonzero"/></clipPath><clipPath id="357456f1d0"><path d="M 105.386719 132 L 169 132 L 169 195 L 105.386719 195 Z M 105.386719 132 " clip-rule="nonzero"/></clipPath><clipPath id="71c21fb2b0"><path d="M 233 165 L 266.636719 165 L 266.636719 199 L 233 199 Z M 233 165 " clip-rule="nonzero"/></clipPath><clipPath id="d655fdc715"><path d="M 239 170 L 266.636719 170 L 266.636719 209 L 239 209 Z M 239 170 " clip-rule="nonzero"/></clipPath><clipPath id="f446e87e32"><path d="M 238 173 L 266.636719 173 L 266.636719 213 L 238 213 Z M 238 173 " clip-rule="nonzero"/></clipPath><clipPath id="221f64a78b"><path d="M 232 177 L 266.636719 177 L 266.636719 217 L 232 217 Z M 232 177 " clip-rule="nonzero"/></clipPath><clipPath id="c0955f61cf"><path d="M 204 148 L 266.636719 148 L 266.636719 212 L 204 212 Z M 204 148 " clip-rule="nonzero"/></clipPath></defs><rect x="-37.5" width="450" fill="#ffffff" y="-37.499999" height="449.999989" fill-opacity="1"/><rect x="-37.5" width="450" fill="#ffffff" y="-37.499999" height="449.999989" fill-opacity="1"/><path fill="#50ac78" d="M 173.273438 209.585938 L 167.121094 258.058594 L 175.695312 270.515625 L 183.378906 270.515625 L 185.160156 211.046875 L 187.476562 270.515625 L 206.671875 267.828125 L 197.394531 206.300781 Z M 173.273438 209.585938 " fill-opacity="1" fill-rule="nonzero"/><path stroke-linecap="butt" transform="matrix(0.330689, 0, 0, 0.330208, 103.354956, 110.719248)" fill-opacity="1" fill="#50ac78" fill-rule="nonzero" stroke-linejoin="miter" d="M 191.965577 449.939911 L 211.586046 295.065899 " stroke="#1d1d1b" stroke-width="3" stroke-opacity="1" stroke-miterlimit="10"/><path stroke-linecap="butt" transform="matrix(0.330689, 0, 0, 0.330208, 103.354956, 110.719248)" fill-opacity="1" fill="#50ac78" fill-rule="nonzero" stroke-linejoin="miter" d="M 284.527888 290.7599 L 308.034651 448.875241 " stroke="#1d1d1b" stroke-width="3" stroke-opacity="1" stroke-miterlimit="10"/><path fill="#50ac78" d="M 185.214844 209.609375 L 183.289062 273.777344 L 139.570312 273.777344 C 139.570312 273.777344 138.40625 251.832031 153.363281 250.429688 C 168.316406 249.03125 172.042969 260.9375 172.042969 260.9375 " fill-opacity="1" fill-rule="nonzero"/><g clip-path="url(#ac9bb99b28)"><path stroke-linecap="butt" transform="matrix(0.330689, 0, 0, 0.330208, 103.354956, 110.719248)" fill="none" stroke-linejoin="miter" d="M 247.543126 299.478365 L 241.719591 493.80432 L 109.514718 493.80432 C 109.514718 493.80432 105.99461 427.345246 151.224458 423.098395 C 196.442493 418.863374 207.711565 454.920202 207.711565 454.920202 " stroke="#1d1d1b" stroke-width="3" stroke-opacity="1" stroke-miterlimit="10"/></g><path fill="#50ac78" d="M 185.214844 209.609375 L 187.710938 273.777344 L 231.433594 273.777344 C 231.433594 273.777344 232.609375 251.832031 217.640625 250.429688 C 202.675781 249.03125 198.960938 260.9375 198.960938 260.9375 " fill-opacity="1" fill-rule="nonzero"/><g clip-path="url(#802c7b0a8f)"><path stroke-linecap="butt" transform="matrix(0.330689, 0, 0, 0.330208, 103.354956, 110.719248)" fill="none" stroke-linejoin="miter" d="M 247.543126 299.478365 L 255.091277 493.80432 L 387.307962 493.80432 C 387.307962 493.80432 390.863508 427.345246 345.598223 423.098395 C 300.34475 418.863374 289.111116 454.920202 289.111116 454.920202 " stroke="#1d1d1b" stroke-width="3" stroke-opacity="1" stroke-miterlimit="10"/></g><g clip-path="url(#d2f2936b52)"><path fill="#ffffff" d="M 212.152344 138.523438 C 212.152344 137.679688 212.109375 136.835938 212.027344 136 C 211.945312 135.160156 211.820312 134.324219 211.65625 133.496094 C 211.492188 132.671875 211.285156 131.851562 211.042969 131.046875 C 210.796875 130.238281 210.511719 129.445312 210.1875 128.667969 C 209.863281 127.886719 209.503906 127.125 209.105469 126.382812 C 208.707031 125.636719 208.273438 124.914062 207.804688 124.214844 C 207.335938 123.511719 206.832031 122.835938 206.296875 122.183594 C 205.761719 121.53125 205.195312 120.90625 204.597656 120.308594 C 204 119.714844 203.375 119.148438 202.722656 118.613281 C 202.066406 118.078125 201.390625 117.574219 200.6875 117.105469 C 199.984375 116.636719 199.261719 116.207031 198.515625 115.808594 C 197.773438 115.410156 197.007812 115.050781 196.230469 114.726562 C 195.449219 114.40625 194.652344 114.121094 193.84375 113.875 C 193.039062 113.628906 192.21875 113.425781 191.390625 113.261719 C 190.5625 113.097656 189.726562 112.972656 188.886719 112.890625 C 188.046875 112.808594 187.203125 112.765625 186.359375 112.765625 C 185.511719 112.765625 184.671875 112.808594 183.828125 112.890625 C 182.988281 112.972656 182.15625 113.097656 181.324219 113.261719 C 180.496094 113.425781 179.679688 113.628906 178.871094 113.875 C 178.0625 114.121094 177.269531 114.40625 176.488281 114.726562 C 175.707031 115.050781 174.945312 115.410156 174.199219 115.808594 C 173.453125 116.207031 172.730469 116.636719 172.027344 117.105469 C 171.324219 117.574219 170.648438 118.078125 169.996094 118.613281 C 169.339844 119.148438 168.714844 119.714844 168.117188 120.308594 C 167.523438 120.90625 166.953125 121.53125 166.417969 122.183594 C 165.882812 122.835938 165.378906 123.511719 164.910156 124.214844 C 164.441406 124.914062 164.007812 125.636719 163.609375 126.382812 C 163.210938 127.125 162.851562 127.886719 162.527344 128.667969 C 162.203125 129.445312 161.921875 130.238281 161.675781 131.046875 C 161.429688 131.851562 161.226562 132.671875 161.058594 133.496094 C 160.894531 134.324219 160.769531 135.160156 160.6875 136 C 160.605469 136.835938 160.5625 137.679688 160.5625 138.523438 C 160.5625 139.367188 160.605469 140.207031 160.6875 141.046875 C 160.769531 141.886719 160.894531 142.71875 161.058594 143.546875 C 161.226562 144.375 161.429688 145.191406 161.675781 146 C 161.921875 146.804688 162.203125 147.601562 162.527344 148.378906 C 162.851562 149.160156 163.210938 149.921875 163.609375 150.664062 C 164.007812 151.40625 164.441406 152.128906 164.910156 152.832031 C 165.378906 153.535156 165.882812 154.210938 166.417969 154.863281 C 166.953125 155.515625 167.523438 156.136719 168.117188 156.734375 C 168.714844 157.332031 169.339844 157.898438 169.996094 158.433594 C 170.648438 158.96875 171.324219 159.46875 172.027344 159.9375 C 172.730469 160.40625 173.453125 160.839844 174.199219 161.238281 C 174.945312 161.636719 175.707031 161.996094 176.488281 162.320312 C 177.269531 162.640625 178.0625 162.925781 178.871094 163.167969 C 179.679688 163.414062 180.496094 163.621094 181.324219 163.785156 C 182.15625 163.949219 182.988281 164.070312 183.828125 164.15625 C 184.671875 164.238281 185.511719 164.277344 186.359375 164.277344 " fill-opacity="1" fill-rule="nonzero"/></g><g clip-path="url(#7d8130468f)"><path stroke-linecap="butt" transform="matrix(0.330689, 0, 0, 0.330208, 103.354956, 110.719248)" fill="none" stroke-linejoin="miter" d="M 329.001739 84.202068 C 329.001739 81.64686 328.871802 79.091652 328.623741 76.560103 C 328.375679 74.016724 327.997681 71.485175 327.501559 68.977286 C 327.005436 66.481226 326.379376 63.996996 325.647005 61.560084 C 324.902821 59.111343 324.040513 56.70992 323.06008 54.355816 C 322.079647 51.989883 320.992902 49.683097 319.788033 47.43546 C 318.583163 45.175994 317.271982 42.987505 315.854489 40.869995 C 314.436996 38.740655 312.91319 36.694122 311.294886 34.718567 C 309.676581 32.743013 307.963776 30.850266 306.156472 29.040327 C 304.349169 27.242217 302.459177 25.526915 300.486499 23.906251 C 298.502009 22.285586 296.458456 20.759559 294.332216 19.339999 C 292.205976 17.920439 290.020674 16.619176 287.764497 15.412549 C 285.520133 14.205923 283.204894 13.117594 280.854217 12.135731 C 278.491729 11.165699 276.08199 10.302133 273.636814 9.556864 C 271.203451 8.811595 268.722838 8.196452 266.218599 7.699606 C 263.714361 7.20276 261.186498 6.82421 258.646823 6.575787 C 256.107147 6.327364 253.55566 6.197238 251.004172 6.197238 C 248.440871 6.197238 245.901196 6.327364 243.349708 6.575787 C 240.810033 6.82421 238.293982 7.20276 235.777931 7.699606 C 233.273693 8.196452 230.804892 8.811595 228.359717 9.556864 C 225.914541 10.302133 223.516615 11.165699 221.154126 12.135731 C 218.791637 13.117594 216.48821 14.205923 214.232034 15.412549 C 211.975857 16.619176 209.790555 17.920439 207.664315 19.339999 C 205.538075 20.759559 203.494522 22.285586 201.521844 23.906251 C 199.537353 25.526915 197.647362 27.242217 195.840058 29.040327 C 194.044567 30.850266 192.31995 32.743013 190.701645 34.718567 C 189.08334 36.694122 187.559535 38.740655 186.142042 40.869995 C 184.724549 42.987505 183.413367 45.175994 182.208498 47.43546 C 181.003629 49.683097 179.916884 51.989883 178.936451 54.355816 C 177.956018 56.70992 177.105522 59.111343 176.361338 61.560084 C 175.617154 63.996996 175.002907 66.481226 174.494972 68.977286 C 173.99885 71.485175 173.620851 74.016724 173.37279 76.560103 C 173.124729 79.091652 172.994792 81.64686 172.994792 84.202068 C 172.994792 86.757277 173.124729 89.300655 173.37279 91.844034 C 173.620851 94.387412 173.99885 96.907132 174.494972 99.415021 C 175.002907 101.922911 175.617154 104.395311 176.361338 106.844053 C 177.105522 109.280964 177.956018 111.694217 178.936451 114.048321 C 179.916884 116.414254 181.003629 118.721039 182.208498 120.968676 C 183.413367 123.216313 184.724549 125.404802 186.142042 127.534142 C 187.559535 129.663482 189.08334 131.710015 190.701645 133.685569 C 192.31995 135.661124 194.044567 137.542041 195.840058 139.35198 C 197.647362 141.161919 199.537353 142.877221 201.521844 144.497886 C 203.494522 146.11855 205.538075 147.632748 207.664315 149.052308 C 209.790555 150.471868 211.975857 151.784961 214.232034 152.991587 C 216.48821 154.198213 218.791637 155.286543 221.154126 156.268405 C 223.516615 157.238438 225.914541 158.102004 228.359717 158.835443 C 230.804892 159.580712 233.273693 160.207685 235.777931 160.704531 C 238.293982 161.201377 240.810033 161.568097 243.349708 161.828349 C 245.901196 162.076772 248.440871 162.195069 251.004172 162.195069 " stroke="#1d1d1b" stroke-width="3" stroke-opacity="1" stroke-miterlimit="10"/></g><path stroke-linecap="butt" transform="matrix(0.330689, 0, 0, 0.330208, 103.354956, 110.719248)" fill-opacity="1" fill="#ffffff" fill-rule="nonzero" stroke-linejoin="miter" d="M 224.095424 160.444278 C 224.095424 162.999486 223.965487 165.554695 223.717426 168.098073 C 223.469365 170.641452 223.091367 173.161171 222.595244 175.669061 C 222.087309 178.17695 221.473062 180.649351 220.728878 183.098092 C 219.984694 185.535004 219.134198 187.948256 218.153765 190.30236 C 217.173332 192.668294 216.086587 194.975079 214.881718 197.222716 C 213.676849 199.482182 212.365667 201.670671 210.948174 203.788181 C 209.518868 205.917522 208.006876 207.964054 206.376758 209.939609 C 204.758454 211.915163 203.045649 213.80791 201.238345 215.60602 C 199.431041 217.415959 197.54105 219.131261 195.568372 220.751925 C 193.595694 222.37259 191.540329 223.898617 189.425901 225.318177 C 187.299661 226.737737 185.102547 228.039001 182.858183 229.245627 C 180.602006 230.452253 178.298579 231.540582 175.93609 232.522445 C 173.573602 233.504307 171.175675 234.356043 168.7305 235.101312 C 166.285324 235.846581 163.80471 236.461724 161.300472 236.95857 C 158.796234 237.455416 156.268371 237.833966 153.728696 238.082389 C 151.18902 238.330812 148.637532 238.460938 146.074232 238.460938 C 143.522744 238.460938 140.971256 238.330812 138.431581 238.082389 C 135.891905 237.833966 133.364042 237.455416 130.859804 236.95857 C 128.355566 236.461724 125.874953 235.846581 123.429777 235.101312 C 120.984601 234.356043 118.586675 233.504307 116.224186 232.522445 C 113.861697 231.540582 111.558271 230.452253 109.302094 229.245627 C 107.05773 228.039001 104.860615 226.737737 102.734375 225.318177 C 100.619948 223.898617 98.564583 222.37259 96.591904 220.751925 C 94.619226 219.131261 92.729235 217.415959 90.921931 215.60602 C 89.114627 213.80791 87.401823 211.915163 85.771706 209.939609 C 84.153401 207.964054 82.641408 205.917522 81.212102 203.788181 C 79.794609 201.670671 78.483428 199.482182 77.278559 197.222716 C 76.073689 194.975079 74.986944 192.668294 74.006512 190.30236 C 73.026079 187.948256 72.175583 185.535004 71.431399 183.098092 C 70.687215 180.649351 70.072968 178.17695 69.565033 175.669061 C 69.06891 173.161171 68.690912 170.641452 68.44285 168.098073 C 68.194789 165.554695 68.064852 162.999486 68.064852 160.444278 C 68.064852 157.900899 68.194789 155.345691 68.44285 152.802313 C 68.690912 150.258934 69.06891 147.739215 69.565033 145.231325 C 70.072968 142.723436 70.687215 140.251035 71.431399 137.802294 C 72.175583 135.365382 73.026079 132.95213 74.006512 130.598026 C 74.986944 128.232092 76.073689 125.925307 77.278559 123.67767 C 78.483428 121.418204 79.794609 119.229715 81.212102 117.112205 C 82.641408 114.982864 84.153401 112.936332 85.771706 110.960777 C 87.401823 108.985223 89.114627 107.092476 90.921931 105.294366 C 92.729235 103.484427 94.619226 101.769125 96.591904 100.148461 C 98.564583 98.527796 100.619948 97.001769 102.734375 95.582209 C 104.860615 94.162649 107.05773 92.861385 109.302094 91.654759 C 111.558271 90.448133 113.861697 89.359804 116.224186 88.377941 C 118.586675 87.396079 120.984601 86.544343 123.429777 85.799074 C 125.874953 85.053804 128.355566 84.438662 130.859804 83.941816 C 133.364042 83.44497 135.891905 83.06642 138.431581 82.817997 C 140.971256 82.569574 143.522744 82.439448 146.074232 82.439448 C 148.637532 82.439448 151.18902 82.569574 153.728696 82.817997 C 156.268371 83.06642 158.796234 83.44497 161.300472 83.941816 C 163.80471 84.438662 166.285324 85.053804 168.7305 85.799074 C 171.175675 86.544343 173.573602 87.396079 175.93609 88.377941 C 178.298579 89.359804 180.602006 90.448133 182.858183 91.654759 C 185.102547 92.861385 187.299661 94.162649 189.414089 95.582209 C 191.540329 97.001769 193.595694 98.527796 195.568372 100.148461 C 197.54105 101.769125 199.431041 103.484427 201.238345 105.294366 C 203.045649 107.092476 204.758454 108.985223 206.376758 110.960777 C 208.006876 112.936332 209.518868 114.982864 210.948174 117.112205 C 212.365667 119.229715 213.676849 121.418204 214.881718 123.67767 C 216.086587 125.925307 217.173332 128.232092 218.153765 130.598026 C 219.134198 132.95213 219.984694 135.365382 220.728878 137.802294 C 221.473062 140.251035 222.087309 142.723436 222.595244 145.231325 C 223.091367 147.739215 223.469365 150.258934 223.717426 152.802313 C 223.965487 155.345691 224.095424 157.900899 224.095424 160.444278 Z M 224.095424 160.444278 " stroke="#1d1d1b" stroke-width="3" stroke-opacity="1" stroke-miterlimit="10"/><path stroke-linecap="butt" transform="matrix(0.330689, 0, 0, 0.330208, 103.354956, 110.719248)" fill-opacity="1" fill="#ffffff" fill-rule="nonzero" stroke-linejoin="miter" d="M 264.175047 283.839544 C 264.175047 286.394752 264.04511 288.938131 263.797048 291.48151 C 263.548987 294.024888 263.170989 296.556437 262.674866 299.064327 C 262.166931 301.560387 261.552684 304.044617 260.8085 306.481529 C 260.064316 308.93027 259.21382 311.331692 258.233387 313.697626 C 257.252954 316.05173 256.16621 318.358515 254.96134 320.617982 C 253.756471 322.865619 252.44529 325.054107 251.027797 327.183447 C 249.598491 329.300958 248.086498 331.35932 246.468193 333.334875 C 244.838076 335.2986 243.125272 337.191347 241.317968 339.001286 C 239.510664 340.811225 237.620673 342.526527 235.647995 344.147191 C 233.675316 345.767856 231.619951 347.282053 229.505524 348.701613 C 227.379284 350.121174 225.182169 351.434267 222.937805 352.640893 C 220.681628 353.847519 218.378201 354.935848 216.015713 355.905881 C 213.653224 356.887744 211.255298 357.751309 208.810122 358.496578 C 206.364946 359.230018 203.884333 359.85699 201.380095 360.353836 C 198.875856 360.850682 196.347993 361.229232 193.808318 361.477655 C 191.268643 361.726078 188.717155 361.844374 186.165667 361.844374 C 183.602366 361.844374 181.050879 361.726078 178.511203 361.477655 C 175.971528 361.229232 173.443665 360.850682 170.939427 360.353836 C 168.435188 359.85699 165.954575 359.230018 163.509399 358.496578 C 161.064223 357.751309 158.666297 356.887744 156.303809 355.905881 C 153.94132 354.935848 151.637893 353.847519 149.381716 352.640893 C 147.137352 351.434267 144.940237 350.121174 142.82581 348.701613 C 140.69957 347.282053 138.644205 345.767856 136.671527 344.147191 C 134.698849 342.526527 132.808858 340.811225 131.001554 339.001286 C 129.19425 337.191347 127.481445 335.2986 125.86314 333.334875 C 124.233023 331.35932 122.72103 329.300958 121.291725 327.183447 C 119.874231 325.054107 118.56305 322.865619 117.358181 320.617982 C 116.153312 318.358515 115.066567 316.05173 114.086134 313.697626 C 113.105701 311.331692 112.255205 308.93027 111.511021 306.481529 C 110.766837 304.044617 110.15259 301.560387 109.644655 299.064327 C 109.148532 296.556437 108.770534 294.024888 108.522473 291.48151 C 108.274411 288.938131 108.144475 286.394752 108.144475 283.839544 C 108.144475 281.284336 108.274411 278.740957 108.522473 276.197579 C 108.770534 273.6542 109.148532 271.122651 109.644655 268.626591 C 110.15259 266.118702 110.766837 263.634471 111.511021 261.19756 C 112.255205 258.748819 113.105701 256.347396 114.086134 253.981462 C 115.066567 251.627358 116.153312 249.320573 117.358181 247.061107 C 118.56305 244.81347 119.874231 242.624981 121.291725 240.495641 C 122.72103 238.37813 124.233023 236.331598 125.86314 234.356043 C 127.481445 232.380489 129.19425 230.487742 131.001554 228.677803 C 132.808858 226.867863 134.698849 225.152562 136.671527 223.531897 C 138.644205 221.911233 140.69957 220.397035 142.82581 218.977475 C 144.940237 217.557915 147.137352 216.244822 149.381716 215.038196 C 151.637893 213.831569 153.94132 212.74324 156.303809 211.773207 C 158.666297 210.791345 161.064223 209.927779 163.509399 209.19434 C 165.954575 208.449071 168.435188 207.822098 170.939427 207.325252 C 173.443665 206.828406 175.971528 206.461686 178.511203 206.201434 C 181.050879 205.953011 183.602366 205.834714 186.165667 205.834714 C 188.717155 205.834714 191.268643 205.953011 193.808318 206.201434 C 196.347993 206.461686 198.875856 206.828406 201.380095 207.325252 C 203.884333 207.822098 206.364946 208.449071 208.810122 209.19434 C 211.255298 209.927779 213.653224 210.791345 216.015713 211.773207 C 218.378201 212.74324 220.681628 213.831569 222.937805 215.038196 C 225.182169 216.244822 227.379284 217.557915 229.505524 218.977475 C 231.619951 220.397035 233.675316 221.911233 235.647995 223.531897 C 237.620673 225.152562 239.510664 226.867863 241.317968 228.677803 C 243.125272 230.487742 244.838076 232.380489 246.468193 234.356043 C 248.086498 236.331598 249.598491 238.37813 251.027797 240.495641 C 252.44529 242.624981 253.756471 244.81347 254.96134 247.061107 C 256.16621 249.320573 257.252954 251.627358 258.233387 253.981462 C 259.21382 256.347396 260.064316 258.748819 260.8085 261.19756 C 261.552684 263.634471 262.166931 266.118702 262.674866 268.626591 C 263.170989 271.122651 263.548987 273.6542 263.797048 276.197579 C 264.04511 278.740957 264.175047 281.284336 264.175047 283.839544 Z M 264.175047 283.839544 " stroke="#1d1d1b" stroke-width="3" stroke-opacity="1" stroke-miterlimit="10"/><path stroke-linecap="butt" transform="matrix(0.330689, 0, 0, 0.330208, 103.354956, 110.719248)" fill-opacity="1" fill="#ffffff" fill-rule="nonzero" stroke-linejoin="miter" d="M 393.899306 283.851374 C 393.899306 286.406582 393.769369 288.949961 393.521308 291.493339 C 393.273247 294.036718 392.895248 296.568267 392.399126 299.064327 C 391.903003 301.572216 391.276944 304.044617 390.544572 306.493358 C 389.800388 308.9421 388.93808 311.343522 387.957647 313.697626 C 386.989026 316.06356 385.890469 318.370345 384.6856 320.617982 C 383.480731 322.877448 382.169549 325.065937 380.752056 327.195277 C 379.334563 329.312788 377.810757 331.35932 376.192453 333.334875 C 374.574148 335.310429 372.861343 337.203176 371.054039 339.013115 C 369.246736 340.823055 367.356745 342.526527 365.384066 344.147191 C 363.399576 345.767856 361.356023 347.293883 359.229783 348.713443 C 357.103543 350.133003 354.918241 351.446096 352.662064 352.652722 C 350.405887 353.847519 348.102461 354.947678 345.739972 355.917711 C 343.377483 356.899573 340.979557 357.763139 338.534381 358.496578 C 336.089205 359.241848 333.620405 359.85699 331.104354 360.365666 C 328.600116 360.862512 326.084065 361.229232 323.532577 361.489484 C 320.992902 361.737907 318.441414 361.856204 315.889926 361.856204 C 313.338438 361.856204 310.78695 361.737907 308.247275 361.489484 C 305.695787 361.229232 303.179737 360.862512 300.675498 360.365666 C 298.159448 359.85699 295.690647 359.241848 293.245471 358.496578 C 290.800295 357.763139 288.402369 356.899573 286.03988 355.917711 C 283.677392 354.947678 281.373965 353.847519 279.117788 352.652722 C 276.861611 351.446096 274.676309 350.133003 272.550069 348.713443 C 270.423829 347.293883 268.380277 345.767856 266.395786 344.147191 C 264.423108 342.526527 262.533117 340.823055 260.725813 339.013115 C 258.918509 337.203176 257.205705 335.310429 255.5874 333.334875 C 253.969095 331.35932 252.44529 329.312788 251.027797 327.195277 C 249.610303 325.065937 248.299122 322.877448 247.094253 320.617982 C 245.889383 318.370345 244.790826 316.06356 243.822206 313.697626 C 242.841773 311.343522 241.979464 308.9421 241.23528 306.493358 C 240.502909 304.044617 239.876849 301.572216 239.380727 299.064327 C 238.884604 296.568267 238.506606 294.036718 238.258545 291.493339 C 238.010483 288.949961 237.880546 286.406582 237.880546 283.851374 C 237.880546 281.296166 238.010483 278.740957 238.258545 276.209408 C 238.506606 273.66603 238.884604 271.134481 239.380727 268.626591 C 239.876849 266.130531 240.502909 263.646301 241.23528 261.209389 C 241.979464 258.760648 242.841773 256.359226 243.822206 253.993292 C 244.790826 251.639188 245.889383 249.332403 247.094253 247.072936 C 248.299122 244.825299 249.610303 242.636811 251.027797 240.507471 C 252.44529 238.38996 253.969095 236.331598 255.5874 234.356043 C 257.205705 232.380489 258.918509 230.499572 260.725813 228.689632 C 262.533117 226.879693 264.423108 225.164391 266.395786 223.543727 C 268.380277 221.923062 270.423829 220.408865 272.550069 218.989305 C 274.676309 217.569744 276.861611 216.256651 279.117788 215.050025 C 281.373965 213.843399 283.677392 212.75507 286.03988 211.773207 C 288.402369 210.803174 290.800295 209.939609 293.245471 209.19434 C 295.690647 208.4609 298.159448 207.833928 300.675498 207.337082 C 303.179737 206.840236 305.695787 206.461686 308.247275 206.213263 C 310.78695 205.96484 313.338438 205.834714 315.889926 205.834714 C 318.441414 205.834714 320.992902 205.96484 323.532577 206.213263 C 326.084065 206.461686 328.600116 206.840236 331.104354 207.337082 C 333.620405 207.833928 336.089205 208.4609 338.534381 209.19434 C 340.979557 209.939609 343.377483 210.803174 345.739972 211.773207 C 348.102461 212.75507 350.405887 213.843399 352.662064 215.050025 C 354.918241 216.256651 357.103543 217.569744 359.229783 218.989305 C 361.356023 220.408865 363.399576 221.923062 365.384066 223.543727 C 367.356745 225.164391 369.246736 226.879693 371.054039 228.689632 C 372.861343 230.499572 374.574148 232.380489 376.192453 234.356043 C 377.810757 236.331598 379.334563 238.38996 380.752056 240.507471 C 382.169549 242.636811 383.480731 244.825299 384.6856 247.072936 C 385.890469 249.332403 386.989026 251.639188 387.957647 253.993292 C 388.93808 256.359226 389.800388 258.760648 390.544572 261.209389 C 391.276944 263.646301 391.903003 266.130531 392.399126 268.626591 C 392.895248 271.134481 393.273247 273.66603 393.521308 276.209408 C 393.769369 278.740957 393.899306 281.296166 393.899306 283.851374 Z M 393.899306 283.851374 " stroke="#1d1d1b" stroke-width="3" stroke-opacity="1" stroke-miterlimit="10"/><path stroke-linecap="butt" transform="matrix(0.330689, 0, 0, 0.330208, 103.354956, 110.719248)" fill-opacity="1" fill="#ffffff" fill-rule="nonzero" stroke-linejoin="miter" d="M 434.002553 160.456108 C 434.002553 163.011316 433.872616 165.566524 433.624555 168.109903 C 433.376494 170.653282 432.998496 173.173001 432.502373 175.68089 C 432.00625 178.18878 431.380191 180.661181 430.636007 183.109922 C 429.903635 185.546833 429.041327 187.948256 428.060894 190.31419 C 427.080461 192.668294 425.993716 194.975079 424.788847 197.234545 C 423.583978 199.482182 422.272796 201.670671 420.855303 203.800011 C 419.43781 205.929351 417.914005 207.975884 416.2957 209.951438 C 414.677395 211.926993 412.952778 213.81974 411.145474 215.617849 C 409.349983 217.427788 407.448179 219.14309 405.475501 220.763755 C 403.502823 222.384419 401.45927 223.898617 399.33303 225.318177 C 397.20679 226.737737 395.021488 228.05083 392.765311 229.257456 C 390.509135 230.464083 388.205708 231.552412 385.843219 232.534274 C 383.480731 233.504307 381.082804 234.367873 378.637628 235.113142 C 376.192453 235.858411 373.711839 236.473554 371.207601 236.9704 C 368.703363 237.467246 366.1755 237.845795 363.635825 238.094218 C 361.096149 238.342641 358.544661 238.472768 355.993173 238.472768 C 353.429873 238.472768 350.890198 238.342641 348.33871 238.094218 C 345.799034 237.845795 343.271171 237.467246 340.766933 236.9704 C 338.262695 236.473554 335.793894 235.858411 333.348718 235.113142 C 330.903542 234.367873 328.493804 233.504307 326.131315 232.534274 C 323.780639 231.552412 321.4654 230.464083 319.221035 229.257456 C 316.964859 228.05083 314.779557 226.737737 312.653317 225.318177 C 310.527077 223.898617 308.471711 222.384419 306.499033 220.763755 C 304.526355 219.14309 302.636364 217.427788 300.82906 215.617849 C 299.021756 213.81974 297.308952 211.926993 295.690647 209.951438 C 294.072342 207.975884 292.548537 205.929351 291.131044 203.800011 C 289.701738 201.670671 288.390557 199.482182 287.185687 197.234545 C 285.992631 194.975079 284.894073 192.668294 283.91364 190.31419 C 282.94502 187.948256 282.082712 185.546833 281.338528 183.109922 C 280.594344 180.661181 279.980097 178.18878 279.483974 175.68089 C 278.976039 173.173001 278.609853 170.653282 278.349979 168.109903 C 278.101918 165.566524 277.983794 163.011316 277.983794 160.456108 C 277.983794 157.900899 278.101918 155.357521 278.349979 152.814142 C 278.609853 150.270764 278.976039 147.751044 279.483974 145.243155 C 279.980097 142.735265 280.594344 140.262865 281.338528 137.814123 C 282.082712 135.365382 282.94502 132.96396 283.91364 130.609856 C 284.894073 128.243922 285.992631 125.937137 287.185687 123.6895 C 288.390557 121.430033 289.701738 119.241545 291.131044 117.124034 C 292.548537 114.994694 294.072342 112.948161 295.690647 110.972607 C 297.308952 108.997052 299.021756 107.104305 300.82906 105.294366 C 302.636364 103.496257 304.526355 101.780955 306.499033 100.16029 C 308.471711 98.539626 310.527077 97.013599 312.653317 95.594039 C 314.779557 94.174478 316.964859 92.861385 319.221035 91.666589 C 321.4654 90.459963 323.780639 89.371633 326.131315 88.389771 C 328.493804 87.407908 330.903542 86.556172 333.348718 85.810903 C 335.793894 85.065634 338.262695 84.450491 340.766933 83.953645 C 343.271171 83.44497 345.799034 83.07825 348.33871 82.829827 C 350.890198 82.569574 353.429873 82.451277 355.993173 82.451277 C 358.544661 82.451277 361.096149 82.569574 363.635825 82.829827 C 366.1755 83.07825 368.703363 83.44497 371.207601 83.953645 C 373.711839 84.450491 376.192453 85.065634 378.637628 85.810903 C 381.082804 86.556172 383.480731 87.407908 385.843219 88.389771 C 388.205708 89.371633 390.509135 90.459963 392.765311 91.666589 C 395.021488 92.861385 397.20679 94.174478 399.33303 95.594039 C 401.45927 97.013599 403.502823 98.539626 405.475501 100.16029 C 407.448179 101.780955 409.349983 103.496257 411.145474 105.294366 C 412.952778 107.104305 414.677395 108.997052 416.2957 110.972607 C 417.914005 112.948161 419.43781 114.994694 420.855303 117.124034 C 422.272796 119.241545 423.583978 121.430033 424.788847 123.6895 C 425.993716 125.937137 427.080461 128.243922 428.060894 130.609856 C 429.041327 132.96396 429.903635 135.365382 430.636007 137.814123 C 431.380191 140.262865 432.00625 142.735265 432.502373 145.243155 C 432.998496 147.751044 433.376494 150.270764 433.624555 152.814142 C 433.872616 155.357521 434.002553 157.900899 434.002553 160.456108 Z M 434.002553 160.456108 " stroke="#1d1d1b" stroke-width="3" stroke-opacity="1" stroke-miterlimit="10"/><path stroke-linecap="butt" transform="matrix(0.330689, 0, 0, 0.330208, 103.354956, 110.719248)" fill-opacity="1" fill="#ffffff" fill-rule="nonzero" stroke-linejoin="miter" d="M 251.004172 162.206899 C 253.55566 162.206899 256.107147 162.088602 258.646823 161.840179 C 261.186498 161.579926 263.714361 161.213207 266.218599 160.71636 C 268.722838 160.207685 271.203451 159.592542 273.636814 158.847273 C 276.08199 158.113834 278.491729 157.250268 280.854217 156.268405 C 283.204894 155.298373 285.520133 154.210043 287.764497 153.003417 C 290.020674 151.796791 292.205976 150.483698 294.332216 149.064138 C 296.458456 147.644577 298.513821 146.13038 300.486499 144.509715 C 302.459177 142.889051 304.349169 141.173749 306.156472 139.36381 C 307.963776 137.553871 309.676581 135.672953 311.294886 133.697399 C 312.91319 131.721844 314.436996 129.663482 315.854489 127.545972 C 317.271982 125.416631 318.583163 123.228143 319.788033 120.980506 C 320.992902 118.721039 322.079647 116.414254 323.06008 114.06015 C 324.040513 111.694217 324.902821 109.292794 325.647005 106.855882 C 326.379376 104.407141 327.005436 101.934741 327.501559 99.426851 C 327.997681 96.918961 328.375679 94.399242 328.623741 91.855863 C 328.871802 89.312485 329.001739 86.769106 329.001739 84.213898 L 251.004172 84.213898 Z M 251.004172 162.206899 " stroke="#ffffff" stroke-width="3" stroke-opacity="1" stroke-miterlimit="10"/><path stroke-linecap="butt" transform="matrix(0.330689, 0, 0, 0.330208, 103.354956, 110.719248)" fill-opacity="1" fill="#ffffff" fill-rule="nonzero" stroke-linejoin="miter" d="M 249.267742 162.206899 C 251.878292 162.206899 254.488843 162.076772 257.08758 161.81652 C 259.686318 161.568097 262.261431 161.177718 264.824731 160.669042 C 267.388031 160.160366 269.915894 159.521564 272.420133 158.764465 C 274.912558 158.007367 277.369547 157.131971 279.779285 156.126449 C 282.200836 155.120928 284.551512 154.008939 286.854939 152.778653 C 289.158366 151.548368 291.40273 150.199786 293.564407 148.756566 C 295.737897 147.301517 297.828699 145.751831 299.848627 144.083847 C 301.868555 142.427694 303.805796 140.676903 305.648537 138.831475 C 307.491279 136.986047 309.251333 135.045981 310.905075 133.034938 C 312.558817 131.012064 314.11806 128.918213 315.559178 126.741554 C 317.012108 124.576725 318.358727 122.340918 319.587221 120.034132 C 320.815715 117.727347 321.937898 115.373243 322.930143 112.959991 C 323.934201 110.546739 324.808321 108.086168 325.564318 105.590108 C 326.320314 103.094048 326.958186 100.562499 327.466121 97.995461 C 327.974056 95.440253 328.363867 92.861385 328.611928 90.258858 C 328.871802 87.656331 329.001739 85.053804 329.001739 82.439448 " stroke="#1d1d1b" stroke-width="3" stroke-opacity="1" stroke-miterlimit="10"/><path stroke-linecap="butt" transform="matrix(0.330689, 0, 0, 0.330208, 103.354956, 110.719248)" fill="none" stroke-linejoin="miter" d="M 66.576484 153.665878 C 66.576484 153.665878 53.582796 152.281807 55.579099 139.553085 " stroke="#1d1d1b" stroke-width="1" stroke-opacity="1" stroke-miterlimit="10"/><path fill="#50ac78" d="M 153.453125 167.765625 C 141.308594 174.25 133.148438 159.945312 133.148438 159.945312 C 134.0625 158.738281 134.898438 157.480469 135.664062 156.171875 C 137.136719 153.707031 135.703125 149.039062 131.789062 146.964844 C 129.808594 145.914062 127.421875 146.414062 125.566406 147.15625 C 124.949219 145.984375 124.257812 144.851562 123.492188 143.765625 C 121.4375 140.769531 117.15625 142.417969 117.15625 142.417969 C 117.15625 142.417969 114.386719 143.410156 114.402344 145.875 L 114.355469 145.816406 C 114.355469 145.816406 110.714844 146.726562 111.464844 150.042969 L 111.207031 149.757812 C 111.207031 149.757812 105.390625 151.210938 110.300781 157.175781 C 112.5 159.859375 114.332031 160.21875 115.683594 159.816406 L 115.898438 160.304688 L 115.761719 160.246094 C 116.753906 164.777344 120.480469 164.929688 122.894531 164.503906 L 122.789062 164.832031 C 122.789062 164.832031 137.632812 188.277344 154.125 178.082031 Z M 121.730469 156.804688 C 121.730469 156.804688 121.738281 156.808594 121.730469 156.804688 Z M 121.730469 156.804688 " fill-opacity="1" fill-rule="nonzero"/><g clip-path="url(#75d690d253)"><path stroke-linecap="butt" transform="matrix(0.330689, 0, 0, 0.330208, 103.354956, 110.719248)" fill="none" stroke-linejoin="miter" d="M 66.446547 160.657212 C 66.446547 160.657212 42.112913 170.665111 37.387935 149.111456 " stroke="#1d1d1b" stroke-width="3" stroke-opacity="1" stroke-miterlimit="10"/></g><g clip-path="url(#83fa8a7919)"><path stroke-linecap="butt" transform="matrix(0.330689, 0, 0, 0.330208, 103.354956, 110.719248)" fill="none" stroke-linejoin="miter" d="M 45.054211 142.084633 C 45.054211 142.084633 35.793255 158.764465 21.004076 140.700562 C 6.214896 122.636659 23.78 118.236023 23.78 118.236023 " stroke="#1d1d1b" stroke-width="3" stroke-opacity="1" stroke-miterlimit="10"/></g><g clip-path="url(#97d0246e57)"><path stroke-linecap="butt" transform="matrix(0.330689, 0, 0, 0.330208, 103.354956, 110.719248)" fill="none" stroke-linejoin="miter" d="M 48.645194 137.364596 C 44.310027 139.36381 38.073057 138.98526 30.383156 129.604334 C 15.015166 110.86614 33.265392 106.311718 33.265392 106.311718 " stroke="#1d1d1b" stroke-width="3" stroke-opacity="1" stroke-miterlimit="10"/></g><g clip-path="url(#e1e07557ea)"><path stroke-linecap="butt" transform="matrix(0.330689, 0, 0, 0.330208, 103.354956, 110.719248)" fill="none" stroke-linejoin="miter" d="M 47.700199 125.47578 C 44.652588 123.855115 42.006601 121.737605 39.774049 119.123248 C 24.370622 102.218653 41.770352 96.019907 41.770352 96.019907 C 41.770352 96.019907 54.775853 91.015957 60.953761 100.101142 C 67.131669 109.174497 66.470172 110.688695 66.470172 110.688695 " stroke="#1d1d1b" stroke-width="3" stroke-opacity="1" stroke-miterlimit="10"/></g><g clip-path="url(#357456f1d0)"><path stroke-linecap="butt" transform="matrix(0.330689, 0, 0, 0.330208, 103.354956, 110.719248)" fill="none" stroke-linejoin="miter" d="M 71.561336 123.831456 C 71.561336 123.831456 57.445465 147.585429 48.515257 137.23447 C 39.58505 126.871681 57.799838 115.432392 57.799838 115.432392 C 57.799838 115.432392 74.160073 103.519916 85.996142 109.80147 C 97.844023 116.083023 102.167378 130.195817 97.714087 137.672167 C 95.398848 141.635106 92.859172 145.444259 90.09506 149.111456 C 90.09506 149.111456 114.771256 192.408041 151.507956 172.794451 L 153.504259 203.965626 C 103.655746 234.82923 57.764401 162.975827 57.764401 162.975827 " stroke="#1d1d1b" stroke-width="3" stroke-opacity="1" stroke-miterlimit="10"/></g><path fill="#50ac78" d="M 219.027344 175.144531 C 231.355469 169.003906 239.101562 183.535156 239.101562 183.535156 C 238.15625 184.714844 237.28125 185.949219 236.480469 187.234375 C 234.9375 189.660156 236.242188 194.363281 240.09375 196.546875 C 242.050781 197.65625 244.445312 197.222656 246.320312 196.53125 C 246.90625 197.722656 247.566406 198.875 248.304688 199.980469 C 250.285156 203.050781 254.601562 201.507812 254.601562 201.507812 C 254.601562 201.507812 257.398438 200.59375 257.449219 198.132812 L 257.5 198.1875 C 257.5 198.1875 261.167969 197.378906 260.5 194.042969 L 260.753906 194.335938 C 260.753906 194.335938 266.613281 193.050781 261.878906 186.949219 C 259.757812 184.207031 257.933594 183.792969 256.574219 184.164062 L 256.371094 183.675781 L 256.507812 183.730469 C 255.640625 179.175781 251.921875 178.921875 249.496094 179.277344 L 249.613281 178.945312 C 249.613281 178.945312 235.4375 155.101562 218.664062 164.820312 Z M 250.425781 186.996094 C 250.425781 186.996094 250.421875 186.996094 250.425781 186.996094 Z M 250.425781 186.996094 " fill-opacity="1" fill-rule="nonzero"/><g clip-path="url(#71c21fb2b0)"><path stroke-linecap="butt" transform="matrix(0.330689, 0, 0, 0.330208, 103.354956, 110.719248)" fill="none" stroke-linejoin="miter" d="M 434.486863 209.998757 C 434.486863 209.998757 459.103997 200.712468 463.214727 222.384419 " stroke="#1d1d1b" stroke-width="3" stroke-opacity="1" stroke-miterlimit="10"/></g><g clip-path="url(#d655fdc715)"><path stroke-linecap="butt" transform="matrix(0.330689, 0, 0, 0.330208, 103.354956, 110.719248)" fill="none" stroke-linejoin="miter" d="M 455.359452 229.1155 C 455.359452 229.1155 465.081093 212.719581 479.362338 231.185692 C 493.643583 249.663634 475.995791 253.555594 475.995791 253.555594 " stroke="#1d1d1b" stroke-width="3" stroke-opacity="1" stroke-miterlimit="10"/></g><g clip-path="url(#f446e87e32)"><path stroke-linecap="butt" transform="matrix(0.330689, 0, 0, 0.330208, 103.354956, 110.719248)" fill="none" stroke-linejoin="miter" d="M 451.638532 233.75273 C 456.009136 231.895472 462.246107 232.427807 469.640697 242.009838 C 484.477126 261.18573 466.096963 265.219647 466.096963 265.219647 " stroke="#1d1d1b" stroke-width="3" stroke-opacity="1" stroke-miterlimit="10"/></g><g clip-path="url(#221f64a78b)"><path stroke-linecap="butt" transform="matrix(0.330689, 0, 0, 0.330208, 103.354956, 110.719248)" fill="none" stroke-linejoin="miter" d="M 452.240967 245.665206 C 455.241327 247.356848 457.81644 249.557167 459.978118 252.242501 C 474.897234 269.561135 457.367567 275.239376 457.367567 275.239376 C 457.367567 275.239376 444.279379 279.923924 438.325908 270.625805 C 432.360624 261.315856 433.104808 259.884467 433.104808 259.884467 " stroke="#1d1d1b" stroke-width="3" stroke-opacity="1" stroke-miterlimit="10"/></g><path stroke-linecap="butt" transform="matrix(0.330689, 0, 0, 0.330208, 103.354956, 110.719248)" fill="none" stroke-linejoin="miter" d="M 434.156115 216.942772 C 434.156115 216.942772 447.114366 218.705393 444.775502 231.374967 " stroke="#1d1d1b" stroke-width="3" stroke-opacity="1" stroke-miterlimit="10"/><g clip-path="url(#c0955f61cf)"><path stroke-linecap="butt" transform="matrix(0.330689, 0, 0, 0.330208, 103.354956, 110.719248)" fill="none" stroke-linejoin="miter" d="M 428.344393 246.635239 C 428.344393 246.635239 443.133572 223.283474 451.756657 233.894686 C 460.391553 244.505898 441.857828 255.412852 441.857828 255.412852 C 441.857828 255.412852 425.155033 266.863971 413.519775 260.251186 C 401.884518 253.638402 397.927349 239.407311 402.605077 232.049258 C 405.026628 228.157297 407.660803 224.419122 410.531227 220.834733 C 410.531227 220.834733 387.095338 176.840198 349.815265 195.424606 L 348.704896 164.206112 C 399.415717 134.773899 443.239884 207.881246 443.239884 207.881246 " stroke="#1d1d1b" stroke-width="3" stroke-opacity="1" stroke-miterlimit="10"/></g><path stroke-linecap="butt" transform="matrix(0.330689, 0, 0, 0.330208, 103.354956, 110.719248)" fill-opacity="1" fill="#f9c049" fill-rule="nonzero" stroke-linejoin="miter" d="M 350.559449 184.032636 C 350.559449 187.285795 350.405887 190.538953 350.075139 193.780282 C 349.756203 197.033441 349.283705 200.251111 348.645833 203.445121 C 348.007961 206.639131 347.216528 209.797653 346.271532 212.920685 C 345.326537 216.043717 344.227979 219.107601 342.987673 222.124167 C 341.735554 225.128902 340.341685 228.07449 338.806067 230.949099 C 337.27045 233.823708 335.593083 236.61551 333.785779 239.324504 C 331.978475 242.033498 330.041234 244.647854 327.962244 247.167574 C 325.895066 249.687293 323.709764 252.100545 321.406338 254.40733 C 319.102911 256.714116 316.693172 258.902604 314.165309 260.972796 C 311.649259 263.031158 309.038709 264.971224 306.321847 266.781163 C 303.616797 268.602932 300.817248 270.270915 297.946824 271.808772 C 295.0764 273.346629 292.135101 274.7307 289.122928 275.984645 C 286.110755 277.22676 283.03952 278.326919 279.921034 279.273292 C 276.802549 280.219666 273.648627 281.012254 270.447454 281.651056 C 267.246282 282.278028 264.033297 282.763044 260.784875 283.082445 C 257.536453 283.401846 254.288031 283.555632 251.027797 283.555632 C 247.767562 283.555632 244.51914 283.401846 241.270718 283.082445 C 238.034108 282.763044 234.809311 282.278028 231.608139 281.651056 C 228.418779 281.012254 225.253044 280.219666 222.134559 279.273292 C 219.016073 278.326919 215.95665 277.22676 212.944477 275.984645 C 209.932304 274.7307 206.991005 273.346629 204.108769 271.808772 C 201.238345 270.270915 198.438796 268.602932 195.733746 266.781163 C 193.028697 264.971224 190.406334 263.031158 187.890284 260.972796 C 185.374233 258.902604 182.952682 256.714116 180.649255 254.40733 C 178.345829 252.100545 176.160527 249.687293 174.093349 247.167574 C 172.026171 244.647854 170.088931 242.033498 168.269814 239.324504 C 166.46251 236.61551 164.785143 233.823708 163.249526 230.949099 C 161.713908 228.07449 160.320039 225.128902 159.079733 222.124167 C 157.827614 219.107601 156.729056 216.043717 155.784061 212.920685 C 154.839065 209.797653 154.047632 206.639131 153.40976 203.445121 C 152.771888 200.251111 152.29939 197.033441 151.980454 193.780282 C 151.661518 190.538953 151.496144 187.285795 151.496144 184.032636 C 151.496144 180.767648 151.661518 177.514489 151.980454 174.27316 C 152.29939 171.031831 152.771888 167.814161 153.40976 164.608321 C 154.047632 161.414311 154.839065 158.25579 155.784061 155.132757 C 156.729056 152.021555 157.827614 148.957671 159.079733 145.941105 C 160.320039 142.92454 161.713908 139.990782 163.249526 137.116173 C 164.785143 134.241564 166.46251 131.449762 168.269814 128.728938 C 170.088931 126.019944 172.026171 123.405588 174.093349 120.885869 C 176.160527 118.366149 178.345829 115.952897 180.649255 113.646112 C 182.952682 111.351156 185.374233 109.162668 187.890284 107.092476 C 190.406334 105.022284 193.028697 103.082218 195.733746 101.272279 C 198.438796 99.46234 201.238345 97.794357 204.108769 96.2565 C 206.991005 94.718643 209.932304 93.322742 212.944477 92.080627 C 215.95665 90.826682 219.016073 89.726523 222.134559 88.78015 C 225.253044 87.833776 228.418779 87.053018 231.608139 86.414216 C 234.809311 85.775414 238.034108 85.302227 241.270718 84.982826 C 244.51914 84.663425 247.767562 84.49781 251.027797 84.49781 C 254.288031 84.49781 257.536453 84.663425 260.784875 84.982826 C 264.033297 85.302227 267.246282 85.775414 270.447454 86.414216 C 273.648627 87.053018 276.802549 87.833776 279.921034 88.78015 C 283.03952 89.726523 286.110755 90.826682 289.122928 92.080627 C 292.135101 93.322742 295.0764 94.718643 297.946824 96.2565 C 300.817248 97.794357 303.616797 99.46234 306.321847 101.272279 C 309.038709 103.082218 311.649259 105.022284 314.165309 107.092476 C 316.693172 109.162668 319.102911 111.351156 321.406338 113.646112 C 323.709764 115.952897 325.895066 118.366149 327.962244 120.885869 C 330.041234 123.405588 331.978475 126.019944 333.785779 128.728938 C 335.593083 131.449762 337.27045 134.241564 338.806067 137.116173 C 340.341685 139.990782 341.735554 142.92454 342.987673 145.941105 C 344.227979 148.957671 345.326537 152.021555 346.271532 155.132757 C 347.216528 158.25579 348.007961 161.414311 348.645833 164.608321 C 349.283705 167.814161 349.756203 171.031831 350.075139 174.27316 C 350.405887 177.514489 350.559449 180.767648 350.559449 184.032636 Z M 350.559449 184.032636 " stroke="#1d1d1b" stroke-width="3" stroke-opacity="1" stroke-miterlimit="10"/><path stroke-linecap="butt" transform="matrix(0.330689, 0, 0, 0.330208, 103.354956, 110.719248)" fill="none" stroke-linejoin="miter" d="M 284.6342 207.585505 C 277.62942 215.783465 265.214542 221.225112 251.039609 221.225112 C 236.864676 221.225112 224.378923 215.759805 217.409581 207.538186 " stroke="#1d1d1b" stroke-width="3" stroke-opacity="1" stroke-miterlimit="10"/><path fill="#1d1d1b" d="M 163.667969 173.234375 C 163.667969 173.445312 163.59375 173.625 163.445312 173.773438 C 163.296875 173.921875 163.117188 173.996094 162.90625 173.996094 C 162.695312 173.996094 162.515625 173.921875 162.367188 173.773438 C 162.214844 173.625 162.140625 173.445312 162.140625 173.234375 C 162.140625 173.023438 162.214844 172.84375 162.367188 172.695312 C 162.515625 172.546875 162.695312 172.472656 162.90625 172.472656 C 163.117188 172.472656 163.296875 172.546875 163.445312 172.695312 C 163.59375 172.84375 163.667969 173.023438 163.667969 173.234375 Z M 163.667969 173.234375 " fill-opacity="1" fill-rule="nonzero"/><path fill="#1d1d1b" d="M 164.433594 178.15625 C 164.433594 178.363281 164.359375 178.542969 164.210938 178.695312 C 164.058594 178.84375 163.878906 178.917969 163.667969 178.917969 C 163.457031 178.917969 163.277344 178.84375 163.128906 178.695312 C 162.980469 178.542969 162.90625 178.363281 162.90625 178.15625 C 162.90625 177.945312 162.980469 177.765625 163.128906 177.613281 C 163.277344 177.464844 163.457031 177.390625 163.667969 177.390625 C 163.878906 177.390625 164.058594 177.464844 164.210938 177.613281 C 164.359375 177.765625 164.433594 177.945312 164.433594 178.15625 Z M 164.433594 178.15625 " fill-opacity="1" fill-rule="nonzero"/><path fill="#1d1d1b" d="M 168.859375 174.761719 C 168.859375 174.96875 168.785156 175.148438 168.636719 175.300781 C 168.488281 175.449219 168.308594 175.523438 168.097656 175.523438 C 167.886719 175.523438 167.707031 175.449219 167.558594 175.300781 C 167.40625 175.148438 167.332031 174.96875 167.332031 174.761719 C 167.332031 174.550781 167.40625 174.371094 167.558594 174.21875 C 167.707031 174.070312 167.886719 173.996094 168.097656 173.996094 C 168.308594 173.996094 168.488281 174.070312 168.636719 174.21875 C 168.785156 174.371094 168.859375 174.550781 168.859375 174.761719 Z M 168.859375 174.761719 " fill-opacity="1" fill-rule="nonzero"/><path fill="#1d1d1b" d="M 210.371094 173.234375 C 210.371094 173.445312 210.292969 173.625 210.144531 173.773438 C 209.996094 173.921875 209.816406 173.996094 209.605469 173.996094 C 209.394531 173.996094 209.214844 173.921875 209.066406 173.773438 C 208.917969 173.625 208.839844 173.445312 208.839844 173.234375 C 208.839844 173.023438 208.917969 172.84375 209.066406 172.695312 C 209.214844 172.546875 209.394531 172.472656 209.605469 172.472656 C 209.816406 172.472656 209.996094 172.546875 210.144531 172.695312 C 210.292969 172.84375 210.371094 173.023438 210.371094 173.234375 Z M 210.371094 173.234375 " fill-opacity="1" fill-rule="nonzero"/><path fill="#1d1d1b" d="M 209.605469 178.15625 C 209.605469 178.363281 209.53125 178.542969 209.382812 178.695312 C 209.234375 178.84375 209.050781 178.917969 208.839844 178.917969 C 208.628906 178.917969 208.449219 178.84375 208.300781 178.695312 C 208.152344 178.542969 208.078125 178.363281 208.078125 178.15625 C 208.078125 177.945312 208.152344 177.765625 208.300781 177.613281 C 208.449219 177.464844 208.628906 177.390625 208.839844 177.390625 C 209.050781 177.390625 209.234375 177.464844 209.382812 177.613281 C 209.53125 177.765625 209.605469 177.945312 209.605469 178.15625 Z M 209.605469 178.15625 " fill-opacity="1" fill-rule="nonzero"/><path fill="#1d1d1b" d="M 205.175781 174.761719 C 205.175781 174.96875 205.101562 175.148438 204.953125 175.300781 C 204.804688 175.449219 204.625 175.523438 204.414062 175.523438 C 204.203125 175.523438 204.023438 175.449219 203.875 175.300781 C 203.722656 175.148438 203.648438 174.96875 203.648438 174.761719 C 203.648438 174.550781 203.722656 174.371094 203.875 174.21875 C 204.023438 174.070312 204.203125 173.996094 204.414062 173.996094 C 204.625 173.996094 204.804688 174.070312 204.953125 174.21875 C 205.101562 174.371094 205.175781 174.550781 205.175781 174.761719 Z M 205.175781 174.761719 " fill-opacity="1" fill-rule="nonzero"/><path stroke-linecap="butt" transform="matrix(0.330689, 0, 0, 0.330208, 103.354956, 110.719248)" fill-opacity="1" fill="#ffffff" fill-rule="nonzero" stroke-linejoin="miter" d="M 247.047003 156.8244 C 247.047003 158.847273 246.928878 160.858316 246.69263 162.85753 C 246.456381 164.844915 246.11382 166.78498 245.653135 168.654068 C 245.192449 170.534985 244.625452 172.309435 243.952143 174.001078 C 243.278833 175.69272 242.522837 177.254236 241.660528 178.685626 C 240.810033 180.128846 239.876849 181.40645 238.872792 182.542098 C 237.868734 183.665916 236.817426 184.624119 235.695244 185.393048 C 234.584875 186.173806 233.427255 186.765289 232.246011 187.155668 C 231.064766 187.546047 229.871709 187.747152 228.655028 187.747152 C 227.450158 187.747152 226.257102 187.546047 225.075857 187.155668 C 223.8828 186.765289 222.736993 186.173806 221.626624 185.393048 C 220.504441 184.624119 219.441321 183.665916 218.437264 182.542098 C 217.433206 181.40645 216.511835 180.128846 215.661339 178.685626 C 214.799031 177.254236 214.043035 175.69272 213.369725 174.001078 C 212.696416 172.309435 212.129419 170.534985 211.668733 168.654068 C 211.208048 166.78498 210.853675 164.844915 210.629238 162.85753 C 210.392989 160.858316 210.274865 158.847273 210.274865 156.8244 C 210.274865 154.789697 210.392989 152.778653 210.629238 150.791269 C 210.853675 148.792055 211.208048 146.863819 211.668733 144.982902 C 212.129419 143.101985 212.696416 141.327535 213.369725 139.635892 C 214.043035 137.94425 214.799031 136.382734 215.661339 134.951344 C 216.511835 133.508124 217.433206 132.23052 218.437264 131.106702 C 219.441321 129.971054 220.504441 129.02468 221.626624 128.243922 C 222.736993 127.463164 223.8828 126.88351 225.075857 126.481301 C 226.257102 126.090922 227.450158 125.889818 228.655028 125.889818 C 229.871709 125.889818 231.064766 126.090922 232.246011 126.481301 C 233.427255 126.88351 234.584875 127.463164 235.695244 128.243922 C 236.817426 129.02468 237.868734 129.971054 238.872792 131.106702 C 239.876849 132.23052 240.810033 133.508124 241.660528 134.951344 C 242.522837 136.382734 243.278833 137.94425 243.952143 139.635892 C 244.625452 141.327535 245.192449 143.101985 245.653135 144.982902 C 246.11382 146.863819 246.456381 148.792055 246.69263 150.791269 C 246.928878 152.778653 247.047003 154.789697 247.047003 156.8244 Z M 247.047003 156.8244 " stroke="#000000" stroke-width="3" stroke-opacity="1" stroke-miterlimit="10"/><path stroke-linecap="butt" transform="matrix(0.330689, 0, 0, 0.330208, 103.354956, 110.719248)" fill-opacity="1" fill="#ffffff" fill-rule="nonzero" stroke-linejoin="miter" d="M 291.768916 156.8244 C 291.768916 158.847273 291.650791 160.858316 291.414542 162.85753 C 291.178294 164.844915 290.835733 166.78498 290.375047 168.654068 C 289.90255 170.534985 289.347365 172.309435 288.674055 174.001078 C 288.000746 175.69272 287.232937 177.254236 286.382441 178.685626 C 285.531945 180.128846 284.598762 181.40645 283.594704 182.542098 C 282.590647 183.665916 281.527527 184.624119 280.417157 185.393048 C 279.306787 186.173806 278.149168 186.765289 276.967923 187.155668 C 275.786679 187.546047 274.58181 187.747152 273.37694 187.747152 C 272.172071 187.747152 270.979014 187.546047 269.79777 187.155668 C 268.604713 186.765289 267.458906 186.173806 266.336724 185.393048 C 265.226354 184.624119 264.163234 183.665916 263.159176 182.542098 C 262.155119 181.40645 261.233748 180.128846 260.37144 178.685626 C 259.520944 177.254236 258.764947 175.69272 258.091638 174.001078 C 257.418329 172.309435 256.851331 170.534985 256.390646 168.654068 C 255.929961 166.78498 255.575587 164.844915 255.339339 162.85753 C 255.10309 160.858316 254.984965 158.847273 254.984965 156.8244 C 254.984965 154.789697 255.10309 152.778653 255.339339 150.791269 C 255.575587 148.792055 255.929961 146.863819 256.390646 144.982902 C 256.851331 143.101985 257.418329 141.327535 258.091638 139.635892 C 258.764947 137.94425 259.520944 136.382734 260.37144 134.951344 C 261.233748 133.508124 262.155119 132.23052 263.159176 131.106702 C 264.163234 129.971054 265.226354 129.02468 266.336724 128.243922 C 267.458906 127.463164 268.604713 126.88351 269.79777 126.481301 C 270.979014 126.090922 272.172071 125.889818 273.37694 125.889818 C 274.58181 125.889818 275.786679 126.090922 276.967923 126.481301 C 278.149168 126.88351 279.306787 127.463164 280.417157 128.243922 C 281.527527 129.02468 282.590647 129.971054 283.594704 131.106702 C 284.598762 132.23052 285.531945 133.508124 286.382441 134.951344 C 287.232937 136.382734 288.000746 137.94425 288.674055 139.635892 C 289.347365 141.327535 289.90255 143.101985 290.375047 144.982902 C 290.835733 146.863819 291.178294 148.792055 291.414542 150.791269 C 291.650791 152.778653 291.768916 154.789697 291.768916 156.8244 Z M 291.768916 156.8244 " stroke="#000000" stroke-width="3" stroke-opacity="1" stroke-miterlimit="10"/><path stroke-linecap="butt" transform="matrix(0.330689, 0, 0, 0.330208, 103.354956, 110.719248)" fill-opacity="1" fill="#211f20" fill-rule="nonzero" stroke-linejoin="miter" d="M 243.645019 162.325195 C 243.645019 163.969519 243.538707 165.613843 243.349708 167.234507 C 243.160709 168.855172 242.87721 170.428518 242.499212 171.954545 C 242.121214 173.492402 241.660528 174.935621 241.117156 176.319692 C 240.573784 177.691934 239.947724 178.957708 239.25079 180.128846 C 238.553856 181.299983 237.797859 182.340993 236.982801 183.263708 C 236.167742 184.186422 235.305434 184.95535 234.395875 185.594152 C 233.486317 186.221125 232.541322 186.706141 231.584514 187.025542 C 230.615893 187.344943 229.647273 187.510558 228.655028 187.510558 C 227.674595 187.510558 226.705974 187.344943 225.737354 187.025542 C 224.768734 186.706141 223.835551 186.221125 222.925992 185.594152 C 222.016434 184.95535 221.154126 184.186422 220.339067 183.263708 C 219.524009 182.340993 218.768012 181.299983 218.071078 180.128846 C 217.374144 178.957708 216.748084 177.691934 216.204712 176.319692 C 215.661339 174.935621 215.200654 173.492402 214.822656 171.954545 C 214.444658 170.428518 214.161159 168.855172 213.97216 167.234507 C 213.771348 165.613843 213.676849 163.969519 213.676849 162.325195 C 213.676849 160.669042 213.771348 159.024718 213.97216 157.404053 C 214.161159 155.783389 214.444658 154.210043 214.822656 152.684016 C 215.200654 151.157989 215.661339 149.70294 216.204712 148.330698 C 216.748084 146.946627 217.374144 145.680853 218.071078 144.509715 C 218.768012 143.338578 219.524009 142.297568 220.339067 141.374853 C 221.154126 140.452139 222.016434 139.683211 222.925992 139.044409 C 223.835551 138.417436 224.768734 137.93242 225.737354 137.613019 C 226.705974 137.293618 227.674595 137.128003 228.655028 137.128003 C 229.647273 137.128003 230.615893 137.293618 231.584514 137.613019 C 232.541322 137.93242 233.486317 138.417436 234.395875 139.044409 C 235.305434 139.683211 236.167742 140.452139 236.982801 141.374853 C 237.797859 142.297568 238.553856 143.338578 239.25079 144.509715 C 239.947724 145.680853 240.573784 146.946627 241.117156 148.330698 C 241.660528 149.70294 242.121214 151.157989 242.499212 152.684016 C 242.87721 154.210043 243.160709 155.783389 243.349708 157.404053 C 243.538707 159.024718 243.645019 160.669042 243.645019 162.325195 Z M 243.645019 162.325195 " stroke="#000000" stroke-width="2" stroke-opacity="1" stroke-miterlimit="10"/><path stroke-linecap="butt" transform="matrix(0.330689, 0, 0, 0.330208, 103.354956, 110.719248)" fill-opacity="1" fill="#211f20" fill-rule="nonzero" stroke-linejoin="miter" d="M 288.390557 162.384344 C 288.390557 164.040497 288.296057 165.684821 288.107058 167.305485 C 287.906247 168.93798 287.622748 170.511326 287.24475 172.037353 C 286.866751 173.575209 286.406066 175.030259 285.862694 176.4025 C 285.307509 177.786571 284.693262 179.064175 283.996328 180.235313 C 283.299393 181.40645 282.543397 182.45929 281.716526 183.370175 C 280.901467 184.292889 280.039159 185.073647 279.129601 185.712449 C 278.20823 186.339421 277.275047 186.824438 276.306427 187.143839 C 275.337806 187.46324 274.369186 187.628855 273.37694 187.628855 C 272.396508 187.628855 271.416075 187.46324 270.447454 187.143839 C 269.490646 186.824438 268.545651 186.339421 267.636093 185.712449 C 266.726535 185.073647 265.864226 184.292889 265.037355 183.370175 C 264.222296 182.45929 263.4663 181.40645 262.769366 180.235313 C 262.072432 179.064175 261.446372 177.786571 260.903 176.4025 C 260.347815 175.030259 259.887129 173.575209 259.509131 172.037353 C 259.131133 170.511326 258.847634 168.93798 258.658635 167.305485 C 258.469636 165.684821 258.375137 164.040497 258.375137 162.384344 C 258.375137 160.71636 258.469636 159.083866 258.658635 157.451372 C 258.847634 155.830708 259.131133 154.245532 259.509131 152.719505 C 259.887129 151.181648 260.347815 149.726599 260.903 148.354357 C 261.446372 146.970286 262.072432 145.692682 262.769366 144.521545 C 263.4663 143.350408 264.222296 142.309397 265.037355 141.386683 C 265.864226 140.463969 266.726535 139.683211 267.636093 139.056238 C 268.545651 138.417436 269.490646 137.94425 270.447454 137.613019 C 271.416075 137.293618 272.396508 137.128003 273.37694 137.128003 C 274.369186 137.128003 275.337806 137.293618 276.306427 137.613019 C 277.275047 137.94425 278.20823 138.417436 279.129601 139.056238 C 280.039159 139.683211 280.901467 140.463969 281.716526 141.386683 C 282.543397 142.309397 283.299393 143.350408 283.996328 144.521545 C 284.693262 145.692682 285.307509 146.970286 285.862694 148.354357 C 286.406066 149.726599 286.866751 151.181648 287.24475 152.719505 C 287.622748 154.245532 287.906247 155.830708 288.107058 157.451372 C 288.296057 159.083866 288.390557 160.71636 288.390557 162.384344 Z M 288.390557 162.384344 " stroke="#000000" stroke-width="2" stroke-opacity="1" stroke-miterlimit="10"/></svg>